<svg width="14" height="14" viewBox="0 0 14 14" fill="none" xmlns="http://www.w3.org/2000/svg">
<g clip-path="url(#clip0_13_481)">
<path d="M12.7751 0.583313H6.35967C6.18952 0.583313 6.02634 0.650904 5.90603 0.771217C5.78571 0.89153 5.71812 1.05471 5.71812 1.22486C5.71812 1.39501 5.78571 1.55819 5.90603 1.6785C6.02634 1.79881 6.18952 1.8664 6.35967 1.8664H11.2264L0.773737 12.3191C0.712463 12.3783 0.663589 12.4491 0.629966 12.5273C0.596343 12.6056 0.578645 12.6898 0.577905 12.775C0.577165 12.8602 0.593397 12.9446 0.625654 13.0235C0.657912 13.1023 0.705548 13.174 0.765785 13.2342C0.826021 13.2944 0.897651 13.3421 0.976495 13.3743C1.05534 13.4066 1.13982 13.4228 1.225 13.4221C1.31018 13.4213 1.39437 13.4036 1.47264 13.37C1.55091 13.3364 1.6217 13.2875 1.68088 13.2262L12.1336 2.77355V7.64031C12.1336 7.81045 12.2012 7.97363 12.3215 8.09395C12.4418 8.21426 12.605 8.28185 12.7751 8.28185C12.9453 8.28185 13.1084 8.21426 13.2288 8.09395C13.3491 7.97363 13.4167 7.81045 13.4167 7.64031V1.22486C13.4167 1.05471 13.3491 0.89153 13.2288 0.771217C13.1084 0.650904 12.9453 0.583313 12.7751 0.583313Z" fill="white"/>
</g>
<defs>
<clipPath id="clip0_13_481">
<rect width="14" height="14" fill="white"/>
</clipPath>
</defs>
</svg>
