<svg width="24" height="24" viewBox="0 0 24 24" fill="none" xmlns="http://www.w3.org/2000/svg">
<mask id="mask0_16_1248" style="mask-type:alpha" maskUnits="userSpaceOnUse" x="0" y="0" width="24" height="24">
<rect width="24" height="24" rx="5" fill="#D9D9D9"/>
</mask>
<g mask="url(#mask0_16_1248)">
<path d="M3.37525 11.6247L7.91166 7.08834C8.03197 6.96803 8.19515 6.90044 8.3653 6.90044C8.53545 6.90044 8.69863 6.96803 8.81894 7.08834C8.93925 7.20865 9.00684 7.37183 9.00684 7.54198C9.00684 7.71213 8.93925 7.87531 8.81894 7.99562L5.37762 11.4369L20.16 11.4369C20.2451 11.4355 20.3297 11.451 20.4089 11.4825C20.488 11.5141 20.56 11.5611 20.6208 11.6208C20.6815 11.6805 20.7298 11.7517 20.7627 11.8303C20.7957 11.9089 20.8127 11.9932 20.8127 12.0784C20.8127 12.1636 20.7957 12.2479 20.7627 12.3265C20.7298 12.405 20.6815 12.4762 20.6208 12.536C20.56 12.5957 20.488 12.6427 20.4089 12.6742C20.3297 12.7058 20.2451 12.7213 20.16 12.7198L5.37762 12.7198L8.81894 16.1612C8.93925 16.2815 9.00685 16.4446 9.00685 16.6148C9.00684 16.7849 8.93925 16.9481 8.81894 17.0684C8.69863 17.1887 8.53545 17.2563 8.3653 17.2563C8.19515 17.2563 8.03197 17.1887 7.91166 17.0684L3.37525 12.532C3.25494 12.4117 3.18735 12.2485 3.18735 12.0784C3.18735 11.9082 3.25494 11.7451 3.37525 11.6247Z" fill="black"/>
</g>
</svg>
