<svg width="800" height="800" viewBox="0 0 800 800" fill="none" xmlns="http://www.w3.org/2000/svg">
<path fill-rule="evenodd" clip-rule="evenodd" d="M176.43 176.43C189.447 163.412 210.552 163.412 223.57 176.43L400 352.86L576.43 176.43C589.446 163.412 610.553 163.412 623.57 176.43C636.586 189.447 636.586 210.552 623.57 223.57L447.14 400L623.57 576.43C636.586 589.446 636.586 610.553 623.57 623.57C610.553 636.586 589.446 636.586 576.43 623.57L400 447.14L223.57 623.57C210.552 636.586 189.447 636.586 176.43 623.57C163.412 610.553 163.412 589.446 176.43 576.43L352.86 400L176.43 223.57C163.412 210.552 163.412 189.447 176.43 176.43Z" fill="black"/>
</svg>
