<svg width="4" height="16" viewBox="0 0 4 16" fill="none" xmlns="http://www.w3.org/2000/svg">
<path d="M1.75 3.5C2.09612 3.5 2.43446 3.39736 2.72225 3.20507C3.01003 3.01278 3.23433 2.73947 3.36679 2.4197C3.49924 2.09992 3.5339 1.74806 3.46637 1.40859C3.39885 1.06913 3.23218 0.757305 2.98744 0.512563C2.74269 0.267822 2.43087 0.101151 2.09141 0.0336265C1.75194 -0.0338976 1.40008 0.000758241 1.0803 0.133212C0.760534 0.265665 0.487221 0.489966 0.294929 0.777752C0.102637 1.06554 9.43065e-07 1.40388 9.43065e-07 1.75C9.43065e-07 2.21413 0.184376 2.65925 0.512564 2.98744C0.840753 3.31562 1.28587 3.5 1.75 3.5ZM1.75 12.25C1.40388 12.25 1.06554 12.3526 0.777753 12.5449C0.489967 12.7372 0.265665 13.0105 0.133212 13.3303C0.000758241 13.6501 -0.0338976 14.0019 0.0336265 14.3414C0.101151 14.6809 0.267822 14.9927 0.512564 15.2374C0.757306 15.4822 1.06913 15.6488 1.40859 15.7164C1.74806 15.7839 2.09992 15.7492 2.4197 15.6168C2.73947 15.4843 3.01278 15.26 3.20507 14.9722C3.39736 14.6845 3.5 14.3461 3.5 14C3.5 13.5359 3.31562 13.0907 2.98744 12.7626C2.65925 12.4344 2.21413 12.25 1.75 12.25ZM1.75 6.125C1.40388 6.125 1.06554 6.22763 0.777753 6.41992C0.489967 6.61222 0.265665 6.88553 0.133212 7.2053C0.000758241 7.52507 -0.0338976 7.87694 0.0336265 8.2164C0.101151 8.55587 0.267822 8.86769 0.512564 9.11243C0.757306 9.35717 1.06913 9.52384 1.40859 9.59137C1.74806 9.65889 2.09992 9.62424 2.4197 9.49178C2.73947 9.35933 3.01278 9.13503 3.20507 8.84724C3.39736 8.55946 3.5 8.22111 3.5 7.875C3.5 7.41087 3.31562 6.96575 2.98744 6.63756C2.65925 6.30937 2.21413 6.125 1.75 6.125Z" fill="black"/>
</svg>
