<svg width="800" height="800" viewBox="0 0 800 800" fill="none" xmlns="http://www.w3.org/2000/svg">
<g clip-path="url(#clip0_2018_7)">
<path d="M400 800C180 800 0 620 0 400C0 180 180 0 400 0C620 0 800 180 800 400C800 620 620 800 400 800ZM316.667 566.667C336.667 670 373.333 733.333 400 733.333C426.667 733.333 463.333 670 483.333 566.667H316.667ZM553.333 566.667C543.333 623.333 526.667 676.667 506.667 716.667C583.333 690 650 636.667 690 566.667H553.333ZM110 566.667C150 636.667 216.667 690 293.333 716.667C273.333 676.667 256.667 623.333 246.667 566.667H110ZM563.333 500H720C726.667 470 733.333 433.333 733.333 400C733.333 366.667 726.667 330 716.667 300H560C566.667 333.333 566.667 366.667 566.667 400C566.667 433.333 566.667 466.667 563.333 500ZM306.667 500H496.667C500 470 503.333 436.667 503.333 400C503.333 363.333 500 330 496.667 300H306.667C303.333 330 300 363.333 300 400C300 436.667 303.333 470 306.667 500ZM83.3333 500H240C236.667 466.667 236.667 433.333 236.667 400C236.667 366.667 236.667 333.333 240 300H83.3333C73.3333 330 66.6667 366.667 66.6667 400C66.6667 433.333 73.3333 470 83.3333 500ZM553.333 233.333H690C650 163.333 583.333 110 506.667 83.3333C526.667 123.333 543.333 176.667 553.333 233.333ZM316.667 233.333H486.667C466.667 130 430 66.6667 403.333 66.6667C376.667 66.6667 336.667 130 316.667 233.333ZM110 233.333H246.667C256.667 176.667 273.333 123.333 293.333 83.3333C216.667 110 153.333 163.333 110 233.333Z" fill="#FA7500"/>
</g>
<defs>
<clipPath id="clip0_2018_7">
<rect width="800" height="800" fill="white"/>
</clipPath>
</defs>
</svg>
