<svg width="20" height="21" viewBox="0 0 20 21" fill="none" xmlns="http://www.w3.org/2000/svg">
<path d="M8.60851 14.3274H3.35791" stroke="#130F26" stroke-width="1.5" stroke-linecap="round" stroke-linejoin="round"/>
<path d="M10.9504 6.25023H16.201" stroke="#130F26" stroke-width="1.5" stroke-linecap="round" stroke-linejoin="round"/>
<path fill-rule="evenodd" clip-rule="evenodd" d="M7.27195 6.20521C7.27195 5.1255 6.39015 4.25 5.30266 4.25C4.21517 4.25 3.33337 5.1255 3.33337 6.20521C3.33337 7.28492 4.21517 8.16042 5.30266 8.16042C6.39015 8.16042 7.27195 7.28492 7.27195 6.20521Z" stroke="#130F26" stroke-width="1.5" stroke-linecap="round" stroke-linejoin="round"/>
<path fill-rule="evenodd" clip-rule="evenodd" d="M16.6667 14.2946C16.6667 13.2149 15.7856 12.3394 14.6981 12.3394C13.6099 12.3394 12.7281 13.2149 12.7281 14.2946C12.7281 15.3743 13.6099 16.2498 14.6981 16.2498C15.7856 16.2498 16.6667 15.3743 16.6667 14.2946Z" stroke="#130F26" stroke-width="1.5" stroke-linecap="round" stroke-linejoin="round"/>
</svg>
