<svg width="100" height="100" viewBox="0 0 100 100" fill="none" xmlns="http://www.w3.org/2000/svg">
<rect width="100" height="100" rx="30" fill="url(#paint0_linear_16_1243)"/>
<path d="M62.4444 38.6193V38.2956C62.4444 35.0346 61.1333 31.9072 58.7996 29.6013C56.4658 27.2954 53.3005 26 50 26C46.6995 26 43.5342 27.2954 41.2004 29.6013C38.8667 31.9072 37.5556 35.0346 37.5556 38.2956V38.6193C36.5186 38.9802 35.6202 39.6493 34.9836 40.5349C34.347 41.4204 34.0034 42.479 34 43.5652V57.6174C34.0015 59.0145 34.5639 60.3539 35.5638 61.3418C36.5637 62.3297 37.9193 62.8854 39.3333 62.8869H60.6667C62.0807 62.8854 63.4363 62.3297 64.4362 61.3418C65.4361 60.3539 65.9985 59.0145 66 57.6174V43.5652C65.9966 42.479 65.653 41.4204 65.0164 40.5349C64.3798 39.6493 63.4814 38.9802 62.4444 38.6193ZM50 29.513C52.3566 29.5158 54.6159 30.442 56.2823 32.0884C57.9487 33.7349 58.8861 35.9672 58.8889 38.2956H41.1111C41.1139 35.9672 42.0513 33.7349 43.7177 32.0884C45.3841 30.442 47.6434 29.5158 50 29.513ZM51.7778 51.8605V54.1043C51.7778 54.5702 51.5905 55.017 51.2571 55.3464C50.9237 55.6758 50.4715 55.8608 50 55.8608C49.5285 55.8608 49.0763 55.6758 48.7429 55.3464C48.4095 55.017 48.2222 54.5702 48.2222 54.1043V51.8605C47.5444 51.4739 47.0146 50.877 46.7151 50.1625C46.4156 49.4481 46.363 48.6559 46.5656 47.9089C46.7682 47.1619 47.2146 46.5019 47.8355 46.0311C48.4565 45.5603 49.2173 45.3051 50 45.3051C50.7827 45.3051 51.5435 45.5603 52.1645 46.0311C52.7854 46.5019 53.2318 47.1619 53.4344 47.9089C53.637 48.6559 53.5844 49.4481 53.2849 50.1625C52.9854 50.877 52.4556 51.4739 51.7778 51.8605ZM64.4965 70.2561L62.3203 70.7621L63.8142 72.8908C64.6175 73.9816 62.6644 75.3643 61.8724 74.24L60.4861 72.1318L59.0781 74.2614C58.3316 75.3528 56.2465 73.9186 57.243 72.8703L58.651 70.8882L56.4324 70.2561C55.0538 69.8864 55.8495 67.5754 57.2006 68.0853L59.4402 68.8015L59.3343 66.6521C59.3137 65.3078 61.646 65.2962 61.6164 66.6521L61.5313 68.8435L63.7927 68.0853C65.0565 67.5895 65.888 69.971 64.4965 70.2561ZM54.0217 70.2561L51.8455 70.7621L53.3394 72.8908C54.1427 73.9816 52.1896 75.3643 51.3976 74.24L50.0113 72.1318L48.6033 74.2614C47.8567 75.3528 45.7717 73.9186 46.7682 72.8703L48.1762 70.8882L45.9575 70.2561C44.579 69.8864 45.3746 67.5754 46.7258 68.0853L48.9654 68.8015L48.8595 66.6521C48.8388 65.3078 51.1712 65.2962 51.1416 66.6521L51.0565 68.8435L53.3178 68.0853C54.5817 67.5895 55.4132 69.971 54.0217 70.2561ZM43.5469 70.2561L41.3707 70.7621L42.8646 72.8908C43.6679 73.9816 41.7147 75.3643 40.9227 74.24L39.5365 72.1318L38.1285 74.2614C37.3819 75.3528 35.2969 73.9186 36.2934 72.8703L37.7014 70.8882L35.4827 70.2561C34.1041 69.8864 34.8998 67.5754 36.251 68.0853L38.4905 68.8015L38.3846 66.6521C38.364 65.3078 40.6964 65.2962 40.6668 66.6521L40.5817 68.8435L42.843 68.0853C44.1069 67.5895 44.9384 69.971 43.5469 70.2561Z" fill="#4F3C12"/>
<defs>
<linearGradient id="paint0_linear_16_1243" x1="214.423" y1="283.654" x2="-11.925" y2="-9.07878" gradientUnits="userSpaceOnUse">
<stop stop-color="#BF943D"/>
<stop offset="0.22" stop-color="#FCF7BC"/>
<stop offset="0.59" stop-color="#B3882D"/>
<stop offset="0.82" stop-color="#FBF6B8"/>
<stop offset="1" stop-color="#AA782B"/>
</linearGradient>
</defs>
</svg>
