<svg width="25" height="24" viewBox="0 0 25 24" fill="none" xmlns="http://www.w3.org/2000/svg">
<path d="M20.54 6.82018L14.78 2.79018C13.21 1.69018 10.8 1.75018 9.28999 2.92018L4.27999 6.83018C3.27999 7.61018 2.48999 9.21018 2.48999 10.4702L2.48999 17.3702C2.48999 19.9202 4.55999 22.0002 7.10999 22.0002H17.89C20.44 22.0002 22.51 19.9302 22.51 17.3802V10.6002C22.51 9.25018 21.64 7.59018 20.54 6.82018Z" fill="#A2AA7B"/>
<path d="M12.5 18.75C12.09 18.75 11.75 18.41 11.75 18V15C11.75 14.59 12.09 14.25 12.5 14.25C12.91 14.25 13.25 14.59 13.25 15V18C13.25 18.41 12.91 18.75 12.5 18.75Z" fill="white"/>
</svg>
