<svg width="24" height="24" viewBox="0 0 24 24" fill="none" xmlns="http://www.w3.org/2000/svg">
<path d="M13.8499 3.40442L13.8503 3.40471L19.6101 7.43461C20.039 7.73479 20.4592 8.23894 20.7729 8.83977C21.0865 9.44059 21.2602 10.0741 21.2602 10.6002V17.3802C21.2602 19.516 19.526 21.2502 17.3902 21.2502H6.61023C4.47656 21.2502 2.74023 19.5081 2.74023 17.3702L2.74023 10.4702C2.74023 9.98352 2.89706 9.38241 3.1831 8.80148C3.46893 8.22096 3.85184 7.7255 4.24151 7.42156L4.24167 7.42143L9.2496 3.51304C9.24994 3.51278 9.25027 3.51252 9.25061 3.51226C10.5009 2.54433 12.5495 2.4933 13.8499 3.40442Z" stroke="#AFAFAF" stroke-width="1.5"/>
<path d="M12 18.75C11.59 18.75 11.25 18.41 11.25 18V15C11.25 14.59 11.59 14.25 12 14.25C12.41 14.25 12.75 14.59 12.75 15V18C12.75 18.41 12.41 18.75 12 18.75Z" fill="#AFAFAF"/>
</svg>
