<svg width="24" height="24" viewBox="0 0 24 24" fill="none" xmlns="http://www.w3.org/2000/svg">
<path d="M12.198 0.00255794C12.1661 0.00142108 12.1343 0 12.1022 0C12.0911 0 12.08 0.000568449 12.0689 0.000852646C12.0459 0.000568449 12.0232 0 12.0001 0C5.38332 0 0 5.38304 0 11.9999C0 18.6167 5.38332 24 12.0001 24C12.0232 24 12.0459 23.9994 12.0689 23.9991C12.08 23.9994 12.0911 24 12.1022 24C12.1343 24 12.1661 23.9986 12.198 23.9974C18.7238 23.8914 24 18.5507 24 11.9999C24 5.44926 18.7238 0.10857 12.198 0.00255794ZM20.7935 7.6363H17.2098C16.9802 6.25359 16.64 4.97917 16.2008 3.88096C16.0667 3.54559 15.924 3.23096 15.7742 2.93651C17.9576 3.84913 19.7433 5.52856 20.7935 7.6363ZM21.8184 11.9999C21.8184 12.7496 21.7334 13.4798 21.5737 14.1818H17.4727C17.5281 13.4693 17.5568 12.7397 17.5568 11.9999C17.5568 11.2603 17.5281 10.5307 17.4727 9.81822H21.5737C21.7334 10.5202 21.8184 11.2504 21.8184 11.9999ZM12.1405 21.8164C12.1204 21.8167 12.1005 21.8169 12.0806 21.8172C11.4348 21.7956 10.6325 20.8162 10.0297 19.3087C9.68407 18.445 9.40838 17.4341 9.20858 16.3492H14.9961C14.7963 17.4341 14.5206 18.445 14.175 19.3087C13.577 20.8037 12.7832 21.7791 12.1405 21.8164ZM8.92067 14.1818C8.86098 13.4735 8.82944 12.7436 8.82944 11.9999C8.82944 11.2564 8.86098 10.5265 8.92067 9.81822H15.284C15.3437 10.5265 15.3749 11.2564 15.3749 11.9999C15.3749 12.7436 15.3437 13.4735 15.284 14.1818H8.92067ZM2.18192 11.9999C2.18192 11.2504 2.26662 10.5055 2.42663 9.80373H6.73221C6.67679 10.5163 6.6478 11.2603 6.6478 11.9999C6.6478 12.7397 6.67679 13.4693 6.73221 14.1818H2.42663C2.26662 13.4798 2.18192 12.7496 2.18192 11.9999ZM12.0806 2.18277C12.1005 2.18306 12.1204 2.18334 12.1405 2.18363C12.7832 2.22086 13.577 3.19629 14.175 4.69126C14.5206 5.55499 14.7963 6.55145 14.9961 7.6363H9.20858C9.40838 6.55145 9.68407 5.55499 10.0297 4.69126C10.6325 3.18378 11.4348 2.20437 12.0806 2.18277ZM8.48354 2.83334C8.31415 3.15706 8.15385 3.50608 8.00379 3.88096C7.56468 4.97917 7.22475 6.25359 6.99482 7.6363H3.2068C4.2979 5.44642 6.1831 3.71896 8.48354 2.83334ZM3.20652 16.3637H6.99482C7.22447 17.7464 7.56468 19.0208 8.00379 20.119C8.15385 20.4939 8.31415 20.8429 8.48354 21.1667C6.1831 20.281 4.2979 18.5539 3.20652 16.3637ZM15.7742 21.0635C15.924 20.769 16.0667 20.4544 16.2008 20.119C16.64 19.0208 16.9799 17.7319 17.2098 16.3492H20.7935C19.7433 18.4569 17.9576 20.1509 15.7742 21.0635Z" fill="url(#paint0_linear_12_277)"/>
<defs>
<linearGradient id="paint0_linear_12_277" x1="2.27777" y1="-5.98473" x2="36.4906" y2="8.5027" gradientUnits="userSpaceOnUse">
<stop stop-color="#83CBAD"/>
<stop offset="1" stop-color="#06836D"/>
</linearGradient>
</defs>
</svg>
