<svg width="183" height="241" viewBox="0 0 183 241" fill="none" xmlns="http://www.w3.org/2000/svg">
<g filter="url(#filter0_d_98_95)">
<path d="M139.714 0H43.609C39.2505 0 35.7173 3.53324 35.7173 7.89169V96.5372L91.6619 150.944L147.606 96.5372V7.89169C147.606 3.53323 144.073 0 139.714 0Z" fill="#65AC4C"/>
<mask id="mask0_98_95" style="mask-type:alpha" maskUnits="userSpaceOnUse" x="35" y="0" width="113" height="151">
<path d="M134.251 0H49.0724C41.6966 0 35.7173 5.97932 35.7173 13.3552V94.6347L91.6619 150.944L147.606 94.6347V13.3552C147.606 5.97931 141.627 0 134.251 0Z" fill="#0292B5"/>
</mask>
<g mask="url(#mask0_98_95)">
<path d="M90.4477 93.416H49.5981C48.9276 93.416 48.384 93.9596 48.384 94.6301V97.4797C48.384 98.1502 48.9276 98.6938 49.5981 98.6938H90.4477C91.1182 98.6938 91.6618 98.1502 91.6618 97.4797V94.6301C91.6618 93.9596 91.1182 93.416 90.4477 93.416Z" fill="white"/>
<path d="M132.67 93.416H97.0981C96.4276 93.416 95.884 93.9596 95.884 94.6301V97.4797C95.884 98.1502 96.4276 98.6938 97.0981 98.6938H132.67C133.34 98.6938 133.884 98.1502 133.884 97.4797V94.6301C133.884 93.9596 133.34 93.416 132.67 93.416Z" fill="white"/>
<path d="M106.841 120.803H76.4888C75.8182 120.803 75.2747 121.347 75.2747 122.017V125.053C75.2747 125.723 75.8182 126.267 76.4888 126.267H106.841C107.512 126.267 108.056 125.723 108.056 125.053V122.017C108.056 121.347 107.512 120.803 106.841 120.803Z" fill="white"/>
<path d="M133.894 24.8701H49.4297C48.7591 24.8701 48.2156 25.4137 48.2156 26.0842V28.9338C48.2156 29.6043 48.7591 30.1479 49.4297 30.1479H133.894C134.564 30.1479 135.108 29.6043 135.108 28.9338V26.0842C135.108 25.4137 134.564 24.8701 133.894 24.8701Z" fill="white"/>
<path d="M90.451 106.841H63.7407C63.0702 106.841 62.5266 107.385 62.5266 108.055V111.091C62.5266 111.761 63.0702 112.305 63.7407 112.305H90.451C91.1216 112.305 91.6651 111.761 91.6651 111.091V108.055C91.6651 107.385 91.1216 106.841 90.451 106.841Z" fill="white"/>
<path d="M120.197 106.841H97.1287C96.4581 106.841 95.9146 107.385 95.9146 108.055V111.091C95.9146 111.761 96.4581 112.305 97.1287 112.305H120.197C120.867 112.305 121.411 111.761 121.411 111.091V108.055C121.411 107.385 120.867 106.841 120.197 106.841Z" fill="white"/>
<path d="M97.1286 132.337H86.2017C85.5311 132.337 84.9875 132.881 84.9875 133.552V136.587C84.9875 137.257 85.5311 137.801 86.2017 137.801H97.1286C97.7991 137.801 98.3427 137.257 98.3427 136.587V133.552C98.3427 132.881 97.7991 132.337 97.1286 132.337Z" fill="white"/>
<path d="M73.031 65.9722H49.5981C48.9276 65.9722 48.384 66.5157 48.384 67.1863V70.0358C48.384 70.7064 48.9276 71.2499 49.5981 71.2499H73.031C73.7016 71.2499 74.2452 70.7064 74.2452 70.0358V67.1863C74.2452 66.5157 73.7016 65.9722 73.031 65.9722Z" fill="white"/>
<path d="M104.17 65.9722H80.7368C80.0663 65.9722 79.5227 66.5157 79.5227 67.1863V70.0358C79.5227 70.7064 80.0663 71.2499 80.7368 71.2499H104.17C104.84 71.2499 105.384 70.7064 105.384 70.0358V67.1863C105.384 66.5157 104.84 65.9722 104.17 65.9722Z" fill="white"/>
<path d="M104.731 38.5923H49.4297C48.7591 38.5923 48.2156 39.1359 48.2156 39.8064V42.656C48.2156 43.3265 48.7591 43.8701 49.4297 43.8701H104.731C105.402 43.8701 105.945 43.3265 105.945 42.656V39.8064C105.945 39.1359 105.402 38.5923 104.731 38.5923Z" fill="white"/>
<path d="M133.894 38.5923H111.326C110.655 38.5923 110.112 39.1359 110.112 39.8064V42.656C110.112 43.3265 110.655 43.8701 111.326 43.8701H133.894C134.564 43.8701 135.108 43.3265 135.108 42.656V39.8064C135.108 39.1359 134.564 38.5923 133.894 38.5923Z" fill="white"/>
<path d="M73.031 79.6943H49.5981C48.9276 79.6943 48.384 80.2379 48.384 80.9084V83.758C48.384 84.4285 48.9276 84.9721 49.5981 84.9721H73.031C73.7016 84.9721 74.2452 84.4285 74.2452 83.758V80.9084C74.2452 80.2379 73.7016 79.6943 73.031 79.6943Z" fill="white"/>
<path d="M104.17 79.6943H80.7368C80.0663 79.6943 79.5227 80.2379 79.5227 80.9084V83.758C79.5227 84.4285 80.0663 84.9721 80.7368 84.9721H104.17C104.84 84.9721 105.384 84.4285 105.384 83.758V80.9084C105.384 80.2379 104.84 79.6943 104.17 79.6943Z" fill="white"/>
<path d="M104.731 52.3145H49.4297C48.7591 52.3145 48.2156 52.858 48.2156 53.5286V56.3781C48.2156 57.0487 48.7591 57.5922 49.4297 57.5922H104.731C105.402 57.5922 105.945 57.0487 105.945 56.3781V53.5286C105.945 52.858 105.402 52.3145 104.731 52.3145Z" fill="white"/>
</g>
</g>
<path d="M9.84517 74.9334C6.34132 78.4373 6.34132 84.1181 9.84517 87.622L85.2951 163.072C88.799 166.576 94.4804 166.576 97.9837 163.072L173.434 87.622C176.938 84.1181 176.938 78.4373 173.434 74.9334L147.606 49.3472V68.209L154.572 74.9334C158.076 78.4373 158.076 84.1181 154.572 87.622L97.9837 144.21C94.4804 147.714 88.799 147.714 85.2951 144.21L28.7073 87.622C25.2035 84.1181 25.2035 78.4373 28.7073 74.9334L35.7173 68.209V49.3472L9.84517 74.9334Z" fill="#023E62"/>
<path d="M14.7667 221.029C12.4076 221.029 10.448 220.815 8.88765 220.388C7.34586 219.961 6.10134 219.431 5.15401 218.8C4.22526 218.15 3.51011 217.509 3.00858 216.877C2.8414 216.636 2.6928 216.403 2.56278 216.181C2.43275 215.958 2.33987 215.707 2.28415 215.428C2.20985 215.057 2.13554 214.574 2.06125 213.979C1.98694 213.366 1.97766 212.661 2.03338 211.862C2.05196 211.528 2.11697 211.296 2.22842 211.166C2.35845 211.017 2.57206 210.905 2.86926 210.831C3.40795 210.701 4.10451 210.59 4.95898 210.497C5.83201 210.385 6.45428 210.33 6.8258 210.33C7.21583 210.33 7.53162 210.404 7.7731 210.553C8.01459 210.701 8.30252 210.952 8.63688 211.305C9.00834 211.695 9.6492 212.196 10.5594 212.81C11.4696 213.404 12.872 213.701 14.7667 213.701C16.587 213.701 17.9616 213.32 18.8904 212.558C19.8191 211.797 20.2835 210.738 20.2835 209.382C20.2835 208.658 20.0606 207.98 19.6148 207.348C19.1876 206.698 18.3981 206.057 17.2465 205.425C16.0948 204.775 14.4509 204.098 12.3148 203.392C8.78549 202.203 6.24066 200.726 4.68035 198.962C3.12003 197.197 2.33987 194.745 2.33987 191.606C2.33987 189.005 2.97143 186.832 4.23454 185.086C5.49766 183.34 7.24369 182.021 9.47273 181.129C11.7018 180.238 14.2745 179.792 17.1907 179.792C19.4384 179.792 21.2959 180.062 22.7633 180.6C24.2493 181.12 25.4009 181.715 26.2183 182.383C27.0356 183.033 27.565 183.562 27.8065 183.972C27.9551 184.213 28.0479 184.398 28.0851 184.529C28.1408 184.64 28.178 184.798 28.1965 185.002C28.2523 185.578 28.2709 186.219 28.2523 186.925C28.2337 187.631 28.1687 188.429 28.0572 189.321C28.0015 189.618 27.8993 189.822 27.7507 189.934C27.6207 190.027 27.4164 190.073 27.1377 190.073C25.3359 190.111 23.9428 190.018 22.9583 189.794C22.5683 189.702 22.3082 189.609 22.1782 189.516C22.0481 189.423 21.881 189.275 21.6766 189.07C21.3795 188.717 20.9058 188.308 20.2556 187.845C19.6241 187.361 18.6024 187.12 17.1907 187.12C15.2403 187.12 13.8565 187.566 13.0392 188.457C12.2219 189.33 11.8132 190.315 11.8132 191.411C11.8132 192.711 12.4169 193.732 13.6243 194.475C14.8317 195.2 16.7356 196.026 19.3362 196.955C21.5094 197.717 23.3762 198.544 24.9366 199.435C26.4969 200.327 27.6857 201.469 28.503 202.862C29.3389 204.256 29.7569 206.094 29.7569 208.379C29.7569 211.221 29.0974 213.58 27.7786 215.456C26.4783 217.332 24.6951 218.735 22.4289 219.664C20.1813 220.574 17.6273 221.029 14.7667 221.029Z" fill="#65AC4C"/>
<path d="M49.9574 191.132C52.1678 191.132 53.7745 191.318 54.7776 191.69C55.7806 192.042 56.4122 192.321 56.6723 192.525C57.0809 192.785 57.3967 193.12 57.6196 193.528C57.7496 193.732 57.8982 194.086 58.0654 194.587C58.2326 195.088 58.3533 195.637 58.4276 196.231C58.5205 196.695 58.5298 197.03 58.4555 197.234C58.3812 197.42 58.149 197.652 57.7589 197.931C57.3131 198.228 56.8209 198.497 56.2822 198.739C55.7621 198.961 55.3349 199.119 55.0005 199.212C54.7219 199.286 54.5083 199.305 54.3596 199.268C54.211 199.231 54.0067 199.119 53.7466 198.934C53.4495 198.73 53.0315 198.506 52.4928 198.265C51.9541 198.005 51.2112 197.875 50.2638 197.875C49.0564 197.875 47.9048 198.172 46.8088 198.767C45.7315 199.361 44.8491 200.253 44.1619 201.441C43.4932 202.63 43.1588 204.116 43.1588 205.899C43.1588 208.574 43.8554 210.645 45.2485 212.113C46.6602 213.58 48.5456 214.314 50.9047 214.314C52.112 214.314 53.1151 214.193 53.9138 213.951C54.7126 213.692 55.3442 213.432 55.8085 213.171C56.18 212.967 56.4587 212.921 56.6444 213.032C56.8487 213.125 57.0066 213.301 57.1181 213.562L59.152 218.159C59.3564 218.642 59.2449 218.986 58.8177 219.19C58.1304 219.543 56.9974 219.942 55.4184 220.388C53.8395 220.834 51.8891 221.056 49.5673 221.056C44.9049 221.056 41.1805 219.822 38.3943 217.351C35.608 214.862 34.2148 211.147 34.2148 206.206C34.2148 203.048 34.8557 200.346 36.1374 198.098C37.4191 195.85 39.2395 194.132 41.5985 192.943C43.9576 191.736 46.7438 191.132 49.9574 191.132Z" fill="#65AC4C"/>
<path d="M71.1054 221.056C68.3748 221.056 66.2016 220.295 64.5856 218.772C62.9878 217.23 62.189 215.113 62.189 212.419C62.189 211.026 62.4397 209.735 62.9417 208.546C63.4613 207.339 64.3531 206.28 65.6164 205.37C66.8979 204.441 68.6814 203.698 70.9657 203.141C73.2695 202.584 76.204 202.258 79.7704 202.166C79.7704 200.475 79.3431 199.259 78.4889 198.516C77.653 197.773 76.3898 197.401 74.6997 197.401C73.1766 197.401 71.9316 197.661 70.9657 198.181C69.9999 198.702 69.3965 199.054 69.1549 199.24C68.8945 199.463 68.5788 199.547 68.2073 199.491C67.7059 199.417 67.1674 199.286 66.5913 199.101C66.034 198.915 65.4306 198.702 64.7805 198.46C64.6876 198.423 64.5856 198.367 64.4739 198.293C64.3622 198.2 64.2973 198.07 64.279 197.903C64.279 197.81 64.2882 197.698 64.307 197.568C64.3252 197.42 64.3719 197.16 64.446 196.788C64.52 196.417 64.6317 195.961 64.7805 195.423C64.9292 194.866 65.0682 194.438 65.1981 194.141C65.3657 193.825 65.6443 193.528 66.034 193.25C66.3497 192.989 67.3064 192.572 68.9042 191.996C70.5013 191.42 72.8142 191.132 75.8422 191.132C84.1819 191.132 88.3523 195.19 88.3523 203.308V219.079C88.3523 219.431 88.2504 219.738 88.0458 219.998C87.86 220.239 87.5352 220.36 87.0709 220.36H82.8913C82.5938 220.36 82.3249 220.323 82.0833 220.248C81.8605 220.156 81.6468 219.989 81.4423 219.747L79.7146 217.518H79.5197C78.6656 218.762 77.5134 219.664 76.065 220.221C74.6348 220.778 72.9812 221.056 71.1054 221.056ZM74.1704 214.592C75.8792 214.592 77.1698 214.156 78.0428 213.283C78.9163 212.41 79.4736 211.509 79.7146 210.58V207.488C77.1328 207.488 75.192 207.692 73.8917 208.101C72.6096 208.49 71.7555 209.011 71.3281 209.661C70.9008 210.292 70.6871 210.98 70.6871 211.722C70.6871 212.8 71.0216 213.552 71.6906 213.979C72.3589 214.388 73.1857 214.592 74.1704 214.592Z" fill="#65AC4C"/>
<path d="M123.181 202.612V218.883C123.181 219.441 123.06 219.831 122.818 220.054C122.595 220.258 122.205 220.36 121.648 220.36H115.908C115.351 220.36 114.952 220.258 114.71 220.054C114.488 219.831 114.376 219.441 114.376 218.883V204.06C114.376 202.036 113.949 200.56 113.094 199.631C112.24 198.702 111.079 198.238 109.611 198.238C108.144 198.238 107.011 198.553 106.212 199.185C105.432 199.816 104.828 200.615 104.401 201.581V218.883C104.401 219.441 104.28 219.831 104.039 220.054C103.816 220.258 103.426 220.36 102.869 220.36H97.129C96.5717 220.36 96.1723 220.258 95.9307 220.054C95.7079 219.831 95.5962 219.441 95.5962 218.883V195.534C95.5962 195.089 95.6891 194.745 95.8748 194.504C96.2652 193.983 96.7296 193.454 97.268 192.916C97.8253 192.377 98.5034 191.801 99.3022 191.188C99.5439 191.002 99.7757 190.909 99.9985 190.909C100.203 190.909 100.436 191.002 100.695 191.188C101.476 191.801 102.144 192.386 102.702 192.943C103.259 193.501 103.751 194.076 104.178 194.671H104.318C104.633 194.262 105.107 193.788 105.739 193.25C106.37 192.693 107.252 192.2 108.386 191.773C109.537 191.346 111.004 191.133 112.788 191.133C114.534 191.133 116.197 191.485 117.775 192.191C119.354 192.897 120.645 194.086 121.648 195.758C122.67 197.43 123.181 199.714 123.181 202.612Z" fill="#65AC4C"/>
<path d="M152.911 182.606C153.932 184.037 154.972 185.885 156.031 188.151C157.108 190.399 158.148 192.869 159.152 195.562C160.155 198.256 161.055 201.014 161.854 203.838C162.671 206.643 163.34 209.345 163.861 211.946C164.38 214.547 164.678 216.859 164.752 218.883C164.771 219.868 164.325 220.36 163.414 220.36H156.672C155.799 220.36 155.344 219.924 155.307 219.051C155.232 216.97 154.898 214.444 154.303 211.472H139.09C138.57 214.37 138.273 216.896 138.199 219.051C138.162 219.924 137.688 220.36 136.778 220.36H130.174C129.84 220.36 129.562 220.267 129.338 220.082C129.115 219.877 129.013 219.533 129.032 219.051C129.125 216.989 129.422 214.649 129.923 212.029C130.444 209.391 131.113 206.661 131.93 203.838C132.747 201.014 133.657 198.256 134.66 195.562C135.663 192.85 136.704 190.371 137.781 188.123C138.858 185.875 139.908 184.037 140.929 182.606C141.468 181.845 142.035 181.287 142.629 180.935C143.242 180.581 143.994 180.405 144.886 180.405H148.898C149.809 180.405 150.57 180.581 151.183 180.935C151.796 181.287 152.372 181.845 152.911 182.606ZM146.614 189.21C145.387 191.16 144.264 193.492 143.242 196.203C142.22 198.916 141.338 201.701 140.595 204.562H152.687C151.907 201.701 151.006 198.916 149.985 196.203C148.963 193.492 147.895 191.16 146.781 189.21H146.614Z" fill="#65AC4C"/>
<path d="M179.408 218.883C179.408 219.44 179.287 219.831 179.045 220.054C178.823 220.258 178.433 220.36 177.876 220.36H172.136C171.579 220.36 171.179 220.258 170.938 220.054C170.715 219.831 170.603 219.44 170.603 218.883V193.306C170.603 192.748 170.715 192.367 170.938 192.163C171.179 191.94 171.579 191.829 172.136 191.829H177.876C178.433 191.829 178.823 191.94 179.045 192.163C179.287 192.367 179.408 192.748 179.408 193.306V218.883Z" fill="#65AC4C"/>
<path d="M169.544 181.826C169.396 182.011 169.322 182.225 169.322 182.467C169.322 182.708 169.396 182.922 169.544 183.108C169.693 183.275 169.888 183.507 170.13 183.804C170.65 184.417 171.235 185.058 171.885 185.726C172.535 186.377 173.232 186.999 173.975 187.593C174.271 187.817 174.485 187.965 174.616 188.039C174.764 188.095 174.903 188.123 175.033 188.123C175.163 188.123 175.303 188.095 175.451 188.039C175.6 187.965 175.804 187.817 176.064 187.593C176.77 186.999 177.457 186.377 178.126 185.726C178.795 185.058 179.38 184.436 179.881 183.86C180.142 183.544 180.346 183.293 180.494 183.108C180.661 182.922 180.745 182.708 180.745 182.467C180.745 182.225 180.661 182.011 180.494 181.826C180.346 181.622 180.151 181.38 179.909 181.101C178.85 179.876 177.569 178.612 176.064 177.312C175.6 176.959 175.256 176.783 175.033 176.783C174.811 176.783 174.476 176.959 174.03 177.312C173.324 177.925 172.628 178.566 171.94 179.235C171.253 179.885 170.65 180.507 170.13 181.101C169.888 181.399 169.693 181.64 169.544 181.826Z" fill="#023E62"/>
<path d="M2.18477 229.578V234.15C2.18477 234.693 2.32581 235.103 2.60789 235.378C2.89684 235.653 3.29588 235.791 3.80499 235.791C4.32099 235.791 4.72003 235.653 5.0021 235.378C5.29106 235.103 5.43554 234.693 5.43554 234.15V229.578H6.61204V234.129C6.61204 234.714 6.48474 235.209 6.2302 235.615C5.97561 236.021 5.63506 236.324 5.2085 236.523C4.78195 236.723 4.31067 236.823 3.79467 236.823C3.27868 236.823 2.80741 236.723 2.38085 236.523C1.96117 236.324 1.62749 236.021 1.37982 235.615C1.13214 235.209 1.0083 234.714 1.0083 234.129V229.578H2.18477ZM10.4555 229.114V236.751H9.279V229.114H10.4555ZM14.5078 232.024V235.172C14.5078 235.385 14.5559 235.539 14.6523 235.636C14.7555 235.725 14.9274 235.77 15.1683 235.77H15.8907V236.751H14.9619C14.4321 236.751 14.0262 236.627 13.7441 236.379C13.462 236.131 13.321 235.729 13.321 235.172V232.024H12.6502V231.064H13.321V229.65H14.5078V231.064H15.8907V232.024H14.5078ZM18.7087 230.311C18.4954 230.311 18.3166 230.239 18.1721 230.094C18.0276 229.95 17.9554 229.771 17.9554 229.558C17.9554 229.344 18.0276 229.165 18.1721 229.021C18.3166 228.876 18.4954 228.804 18.7087 228.804C18.9151 228.804 19.0906 228.876 19.235 229.021C19.3795 229.165 19.4517 229.344 19.4517 229.558C19.4517 229.771 19.3795 229.95 19.235 230.094C19.0906 230.239 18.9151 230.311 18.7087 230.311ZM19.2866 231.064V236.751H18.1102V231.064H19.2866ZM28.8498 230.971C29.297 230.971 29.696 231.064 30.0469 231.25C30.4046 231.436 30.6833 231.711 30.8828 232.076C31.0892 232.44 31.1924 232.881 31.1924 233.397V236.751H30.0262V233.572C30.0262 233.063 29.8989 232.674 29.6444 232.406C29.3899 232.131 29.0424 231.993 28.6021 231.993C28.1618 231.993 27.8109 232.131 27.5495 232.406C27.2949 232.674 27.1676 233.063 27.1676 233.572V236.751H26.0015V233.572C26.0015 233.063 25.8742 232.674 25.6197 232.406C25.3651 232.131 25.0176 231.993 24.5773 231.993C24.137 231.993 23.7862 232.131 23.5247 232.406C23.2702 232.674 23.1429 233.063 23.1429 233.572V236.751H21.9664V231.064H23.1429V231.714C23.3355 231.481 23.5798 231.298 23.8756 231.167C24.1714 231.037 24.4879 230.971 24.825 230.971C25.2791 230.971 25.685 231.068 26.0428 231.26C26.4005 231.453 26.6757 231.731 26.8684 232.096C27.0403 231.752 27.3087 231.481 27.6733 231.281C28.038 231.075 28.4301 230.971 28.8498 230.971ZM33.4325 233.882C33.4325 233.31 33.5494 232.805 33.7834 232.365C34.0241 231.924 34.3475 231.584 34.7534 231.343C35.1662 231.095 35.6203 230.971 36.1157 230.971C36.5628 230.971 36.9516 231.061 37.2818 231.24C37.6189 231.411 37.8872 231.628 38.0868 231.89V231.064H39.2735V236.751H38.0868V235.904C37.8872 236.173 37.6154 236.396 37.2715 236.575C36.9275 236.754 36.5353 236.843 36.095 236.843C35.6065 236.843 35.1593 236.72 34.7534 236.472C34.3475 236.218 34.0241 235.867 33.7834 235.419C33.5494 234.965 33.4325 234.453 33.4325 233.882ZM38.0868 233.902C38.0868 233.51 38.0042 233.17 37.8391 232.881C37.6808 232.592 37.471 232.371 37.2096 232.22C36.9481 232.069 36.666 231.993 36.3633 231.993C36.0606 231.993 35.7785 232.069 35.5171 232.22C35.2556 232.365 35.0424 232.581 34.8773 232.87C34.719 233.153 34.6399 233.489 34.6399 233.882C34.6399 234.274 34.719 234.618 34.8773 234.914C35.0424 235.209 35.2556 235.436 35.5171 235.595C35.7854 235.746 36.0675 235.822 36.3633 235.822C36.666 235.822 36.9481 235.746 37.2096 235.595C37.471 235.444 37.6808 235.223 37.8391 234.934C38.0042 234.639 38.0868 234.294 38.0868 233.902ZM43.3265 232.024V235.172C43.3265 235.385 43.3747 235.539 43.471 235.636C43.5742 235.725 43.7462 235.77 43.9869 235.77H44.7093V236.751H43.7805C43.2508 236.751 42.8449 236.627 42.5628 236.379C42.2808 236.131 42.1397 235.729 42.1397 235.172V232.024H41.4689V231.064H42.1397V229.65H43.3265V231.064H44.7093V232.024H43.3265ZM52.1404 233.768C52.1404 233.981 52.1267 234.174 52.0991 234.346H47.7544C47.7889 234.8 47.9574 235.165 48.2601 235.44C48.5629 235.715 48.9344 235.853 49.3747 235.853C50.0076 235.853 50.4548 235.588 50.7162 235.058H51.9856C51.8136 235.581 51.5006 236.011 51.0465 236.348C50.5993 236.678 50.0421 236.843 49.3747 236.843C48.8312 236.843 48.3427 236.723 47.9092 236.482C47.4827 236.235 47.1456 235.89 46.8979 235.45C46.6571 235.003 46.5367 234.487 46.5367 233.902C46.5367 233.318 46.6537 232.805 46.8876 232.365C47.1284 231.917 47.4621 231.574 47.8886 231.333C48.322 231.092 48.8174 230.971 49.3747 230.971C49.9113 230.971 50.3895 231.089 50.8091 231.322C51.2288 231.556 51.5556 231.886 51.7895 232.313C52.0235 232.732 52.1404 233.217 52.1404 233.768ZM50.9123 233.397C50.9055 232.963 50.7507 232.616 50.4479 232.354C50.1453 232.093 49.7703 231.962 49.3231 231.962C48.9172 231.962 48.5697 232.093 48.2808 232.354C47.9918 232.609 47.8198 232.956 47.7648 233.397H50.9123ZM62.5732 235.285H59.5702L59.0542 236.751H57.8262L60.3958 229.568H61.7579L64.3276 236.751H63.0892L62.5732 235.285ZM62.243 234.325L61.0768 230.992L59.9005 234.325H62.243ZM66.1882 233.902C66.1882 233.318 66.3048 232.805 66.5391 232.365C66.7795 231.917 67.1097 231.574 67.5298 231.333C67.9493 231.092 68.4307 230.971 68.9746 230.971C69.6624 230.971 70.23 231.136 70.6774 231.467C71.1314 231.79 71.4374 232.255 71.5958 232.86H70.3265C70.2233 232.578 70.0582 232.358 69.8311 232.199C69.6041 232.041 69.3182 231.962 68.9746 231.962C68.4926 231.962 68.1077 232.134 67.8187 232.478C67.5365 232.815 67.3956 233.29 67.3956 233.902C67.3956 234.515 67.5365 234.992 67.8187 235.337C68.1077 235.681 68.4926 235.853 68.9746 235.853C69.6557 235.853 70.1061 235.553 70.3265 234.955H71.5958C71.4307 235.533 71.1211 235.994 70.667 236.338C70.213 236.675 69.6484 236.843 68.9746 236.843C68.4307 236.843 67.9493 236.723 67.5298 236.482C67.1097 236.235 66.7795 235.89 66.5391 235.45C66.3048 235.003 66.1882 234.487 66.1882 233.902ZM73.5111 233.902C73.5111 233.318 73.6282 232.805 73.862 232.365C74.103 231.917 74.4332 231.574 74.8527 231.333C75.2721 231.092 75.7541 230.971 76.2975 230.971C76.9852 230.971 77.5528 231.136 78.0002 231.467C78.4543 231.79 78.7603 232.255 78.9187 232.86H77.6494C77.5462 232.578 77.381 232.358 77.154 232.199C76.927 232.041 76.6417 231.962 76.2975 231.962C75.8161 231.962 75.4306 232.134 75.1416 232.478C74.8593 232.815 74.7185 233.29 74.7185 233.902C74.7185 234.515 74.8593 234.992 75.1416 235.337C75.4306 235.681 75.8161 235.853 76.2975 235.853C76.9786 235.853 77.429 235.553 77.6494 234.955H78.9187C78.7536 235.533 78.444 235.994 77.9899 236.338C77.5359 236.675 76.9719 236.843 76.2975 236.843C75.7541 236.843 75.2721 236.723 74.8527 236.482C74.4332 236.235 74.103 235.89 73.862 235.45C73.6282 235.003 73.5111 234.487 73.5111 233.902ZM83.6926 236.843C83.1559 236.843 82.6709 236.723 82.2375 236.482C81.804 236.235 81.4635 235.89 81.2158 235.45C80.9681 235.003 80.8443 234.487 80.8443 233.902C80.8443 233.324 80.9718 232.812 81.2261 232.365C81.4811 231.917 81.8283 231.574 82.2684 231.333C82.7091 231.092 83.2009 230.971 83.7442 230.971C84.2881 230.971 84.7798 231.092 85.2199 231.333C85.6606 231.574 86.0079 231.917 86.2622 232.365C86.5172 232.812 86.6441 233.324 86.6441 233.902C86.6441 234.48 86.5135 234.992 86.2519 235.44C85.9909 235.887 85.6327 236.235 85.1786 236.482C84.7318 236.723 84.2365 236.843 83.6926 236.843ZM83.6926 235.822C83.9955 235.822 84.2778 235.749 84.5388 235.605C84.8071 235.461 85.0238 235.244 85.189 234.955C85.3541 234.666 85.4366 234.315 85.4366 233.902C85.4366 233.489 85.3577 233.142 85.1993 232.86C85.0414 232.571 84.8314 232.354 84.5698 232.21C84.3087 232.065 84.0265 231.993 83.7235 231.993C83.4212 231.993 83.1389 232.065 82.8773 232.21C82.6229 232.354 82.4202 232.571 82.2684 232.86C82.1173 233.142 82.0414 233.489 82.0414 233.902C82.0414 234.515 82.1962 234.989 82.5058 235.326C82.8227 235.657 83.2179 235.822 83.6926 235.822ZM94.092 231.064V236.751H92.9155V236.08C92.7298 236.313 92.4857 236.499 92.1828 236.637C91.8872 236.768 91.5709 236.833 91.2334 236.833C90.7866 236.833 90.3841 236.74 90.026 236.554C89.6751 236.369 89.3964 236.094 89.19 235.729C88.9909 235.364 88.8908 234.924 88.8908 234.408V231.064H90.0569V234.232C90.0569 234.742 90.1844 235.134 90.4388 235.409C90.6937 235.677 91.041 235.811 91.4811 235.811C91.9218 235.811 92.269 235.677 92.5234 235.409C92.785 235.134 92.9155 234.742 92.9155 234.232V231.064H94.092ZM99.6484 230.971C100.096 230.971 100.495 231.064 100.845 231.25C101.204 231.436 101.482 231.711 101.681 232.076C101.881 232.44 101.981 232.881 101.981 233.397V236.751H100.815V233.572C100.815 233.063 100.688 232.674 100.433 232.406C100.178 232.131 99.8311 231.993 99.3904 231.993C98.9502 231.993 98.5994 232.131 98.3377 232.406C98.0834 232.674 97.9559 233.063 97.9559 233.572V236.751H96.7794V231.064H97.9559V231.714C98.1489 231.481 98.393 231.298 98.6886 231.167C98.9915 231.037 99.3114 230.971 99.6484 230.971ZM105.989 232.024V235.172C105.989 235.385 106.038 235.539 106.133 235.636C106.237 235.725 106.409 235.77 106.649 235.77H107.372V236.751H106.443C105.914 236.751 105.508 236.627 105.225 236.379C104.944 236.131 104.802 235.729 104.802 235.172V232.024H104.131V231.064H104.802V229.65H105.989V231.064H107.372V232.024H105.989ZM110.19 230.311C109.977 230.311 109.798 230.239 109.654 230.094C109.509 229.95 109.437 229.771 109.437 229.558C109.437 229.344 109.509 229.165 109.654 229.021C109.798 228.876 109.977 228.804 110.19 228.804C110.397 228.804 110.572 228.876 110.717 229.021C110.861 229.165 110.933 229.344 110.933 229.558C110.933 229.771 110.861 229.95 110.717 230.094C110.572 230.239 110.397 230.311 110.19 230.311ZM110.768 231.064V236.751H109.592V231.064H110.768ZM116.317 230.971C116.764 230.971 117.163 231.064 117.514 231.25C117.871 231.436 118.15 231.711 118.35 232.076C118.55 232.44 118.649 232.881 118.649 233.397V236.751H117.483V233.572C117.483 233.063 117.355 232.674 117.101 232.406C116.847 232.131 116.499 231.993 116.059 231.993C115.619 231.993 115.268 232.131 115.006 232.406C114.752 232.674 114.624 233.063 114.624 233.572V236.751H113.448V231.064H114.624V231.714C114.817 231.481 115.061 231.298 115.357 231.167C115.66 231.037 115.98 230.971 116.317 230.971ZM123.576 230.971C124.016 230.971 124.405 231.061 124.742 231.24C125.086 231.411 125.355 231.628 125.547 231.89V231.064H126.734V236.843C126.734 237.366 126.624 237.83 126.404 238.237C126.183 238.649 125.863 238.973 125.444 239.207C125.031 239.44 124.536 239.558 123.958 239.558C123.187 239.558 122.548 239.375 122.038 239.011C121.529 238.653 121.24 238.164 121.171 237.545H122.338C122.427 237.841 122.616 238.078 122.905 238.257C123.201 238.443 123.552 238.536 123.958 238.536C124.432 238.536 124.814 238.391 125.103 238.102C125.399 237.813 125.547 237.394 125.547 236.843V235.894C125.347 236.162 125.076 236.389 124.732 236.575C124.395 236.754 124.009 236.843 123.576 236.843C123.081 236.843 122.627 236.72 122.214 236.472C121.808 236.218 121.485 235.867 121.244 235.419C121.01 234.965 120.893 234.453 120.893 233.882C120.893 233.31 121.01 232.805 121.244 232.365C121.485 231.924 121.808 231.584 122.214 231.343C122.627 231.095 123.081 230.971 123.576 230.971ZM125.547 233.902C125.547 233.51 125.464 233.17 125.299 232.881C125.141 232.592 124.931 232.371 124.67 232.22C124.408 232.069 124.127 231.993 123.824 231.993C123.521 231.993 123.239 232.069 122.977 232.22C122.716 232.365 122.503 232.581 122.338 232.87C122.179 233.153 122.1 233.489 122.1 233.882C122.1 234.274 122.179 234.618 122.338 234.914C122.503 235.209 122.716 235.436 122.977 235.595C123.246 235.746 123.528 235.822 123.824 235.822C124.127 235.822 124.408 235.746 124.67 235.595C124.931 235.444 125.141 235.223 125.299 234.934C125.464 234.639 125.547 234.294 125.547 233.902ZM135.594 236.823C135.112 236.823 134.678 236.74 134.293 236.575C133.908 236.403 133.605 236.162 133.385 235.853C133.165 235.543 133.055 235.182 133.055 234.769H134.314C134.341 235.079 134.462 235.333 134.675 235.533C134.895 235.732 135.202 235.832 135.594 235.832C135.999 235.832 136.316 235.736 136.543 235.543C136.77 235.343 136.884 235.089 136.884 234.779C136.884 234.538 136.812 234.342 136.667 234.191C136.529 234.04 136.354 233.923 136.141 233.84C135.934 233.758 135.645 233.669 135.274 233.572C134.806 233.448 134.424 233.324 134.128 233.2C133.839 233.07 133.592 232.87 133.385 232.602C133.179 232.334 133.076 231.976 133.076 231.529C133.076 231.116 133.179 230.755 133.385 230.445C133.592 230.135 133.881 229.898 134.252 229.733C134.624 229.568 135.053 229.485 135.542 229.485C136.237 229.485 136.804 229.661 137.245 230.012C137.692 230.356 137.939 230.831 137.988 231.436H136.688C136.667 231.174 136.543 230.951 136.316 230.765C136.089 230.579 135.79 230.486 135.418 230.486C135.081 230.486 134.806 230.573 134.593 230.744C134.379 230.916 134.273 231.164 134.273 231.487C134.273 231.708 134.338 231.89 134.469 232.034C134.606 232.172 134.778 232.282 134.985 232.365C135.191 232.447 135.473 232.536 135.831 232.633C136.306 232.763 136.691 232.895 136.987 233.025C137.289 233.156 137.544 233.359 137.751 233.634C137.964 233.902 138.071 234.263 138.071 234.717C138.071 235.082 137.97 235.426 137.771 235.749C137.578 236.073 137.293 236.334 136.915 236.534C136.543 236.726 136.102 236.823 135.594 236.823ZM143.06 236.843C142.523 236.843 142.038 236.723 141.605 236.482C141.171 236.235 140.831 235.89 140.583 235.45C140.335 235.003 140.212 234.487 140.212 233.902C140.212 233.324 140.339 232.812 140.593 232.365C140.848 231.917 141.196 231.574 141.636 231.333C142.076 231.092 142.568 230.971 143.112 230.971C143.655 230.971 144.147 231.092 144.587 231.333C145.028 231.574 145.375 231.917 145.63 232.365C145.885 232.812 146.011 233.324 146.011 233.902C146.011 234.48 145.881 234.992 145.619 235.44C145.358 235.887 145 236.235 144.546 236.482C144.099 236.723 143.604 236.843 143.06 236.843ZM143.06 235.822C143.363 235.822 143.645 235.749 143.906 235.605C144.174 235.461 144.391 235.244 144.556 234.955C144.721 234.666 144.804 234.315 144.804 233.902C144.804 233.489 144.725 233.142 144.567 232.86C144.409 232.571 144.199 232.354 143.937 232.21C143.676 232.065 143.394 231.993 143.091 231.993C142.789 231.993 142.506 232.065 142.245 232.21C141.99 232.354 141.788 232.571 141.636 232.86C141.485 233.142 141.409 233.489 141.409 233.902C141.409 234.515 141.564 234.989 141.873 235.326C142.19 235.657 142.585 235.822 143.06 235.822ZM149.486 229.114V236.751H148.31V229.114H149.486ZM157.316 231.064V236.751H156.139V236.08C155.954 236.313 155.709 236.499 155.407 236.637C155.111 236.768 154.794 236.833 154.457 236.833C154.01 236.833 153.607 236.74 153.25 236.554C152.899 236.369 152.62 236.094 152.414 235.729C152.214 235.364 152.115 234.924 152.115 234.408V231.064H153.281V234.232C153.281 234.742 153.408 235.134 153.663 235.409C153.917 235.677 154.264 235.811 154.705 235.811C155.145 235.811 155.492 235.677 155.747 235.409C156.008 235.134 156.139 234.742 156.139 234.232V231.064H157.316ZM161.376 232.024V235.172C161.376 235.385 161.424 235.539 161.52 235.636C161.624 235.725 161.795 235.77 162.036 235.77H162.759V236.751H161.83C161.3 236.751 160.894 236.627 160.612 236.379C160.33 236.131 160.189 235.729 160.189 235.172V232.024H159.518V231.064H160.189V229.65H161.376V231.064H162.759V232.024H161.376ZM165.577 230.311C165.363 230.311 165.185 230.239 165.04 230.094C164.896 229.95 164.823 229.771 164.823 229.558C164.823 229.344 164.896 229.165 165.04 229.021C165.185 228.876 165.363 228.804 165.577 228.804C165.783 228.804 165.959 228.876 166.103 229.021C166.248 229.165 166.32 229.344 166.32 229.558C166.32 229.771 166.248 229.95 166.103 230.094C165.959 230.239 165.783 230.311 165.577 230.311ZM166.155 231.064V236.751H164.978V231.064H166.155ZM171.301 236.843C170.764 236.843 170.279 236.723 169.846 236.482C169.412 236.235 169.072 235.89 168.824 235.45C168.576 235.003 168.452 234.487 168.452 233.902C168.452 233.324 168.58 232.812 168.834 232.365C169.089 231.917 169.436 231.574 169.876 231.333C170.317 231.092 170.809 230.971 171.352 230.971C171.896 230.971 172.388 231.092 172.828 231.333C173.269 231.574 173.616 231.917 173.87 232.365C174.125 232.812 174.252 233.324 174.252 233.902C174.252 234.48 174.122 234.992 173.86 235.44C173.599 235.887 173.241 236.235 172.787 236.482C172.34 236.723 171.845 236.843 171.301 236.843ZM171.301 235.822C171.604 235.822 171.886 235.749 172.147 235.605C172.415 235.461 172.632 235.244 172.797 234.955C172.962 234.666 173.045 234.315 173.045 233.902C173.045 233.489 172.966 233.142 172.807 232.86C172.649 232.571 172.439 232.354 172.178 232.21C171.917 232.065 171.634 231.993 171.332 231.993C171.029 231.993 170.747 232.065 170.485 232.21C170.231 232.354 170.028 232.571 169.876 232.86C169.725 233.142 169.649 233.489 169.649 233.902C169.649 234.515 169.804 234.989 170.114 235.326C170.431 235.657 170.826 235.822 171.301 235.822ZM179.419 230.971C179.867 230.971 180.266 231.064 180.616 231.25C180.974 231.436 181.253 231.711 181.452 232.076C181.652 232.44 181.752 232.881 181.752 233.397V236.751H180.585V233.572C180.585 233.063 180.458 232.674 180.204 232.406C179.949 232.131 179.601 231.993 179.161 231.993C178.721 231.993 178.37 232.131 178.109 232.406C177.854 232.674 177.727 233.063 177.727 233.572V236.751H176.55V231.064H177.727V231.714C177.919 231.481 178.164 231.298 178.46 231.167C178.763 231.037 179.082 230.971 179.419 230.971Z" fill="#023E62"/>
<defs>
<filter id="filter0_d_98_95" x="35.7173" y="0" width="121.889" height="166.944" filterUnits="userSpaceOnUse" color-interpolation-filters="sRGB">
<feFlood flood-opacity="0" result="BackgroundImageFix"/>
<feColorMatrix in="SourceAlpha" type="matrix" values="0 0 0 0 0 0 0 0 0 0 0 0 0 0 0 0 0 0 127 0" result="hardAlpha"/>
<feOffset dx="6" dy="12"/>
<feGaussianBlur stdDeviation="2"/>
<feComposite in2="hardAlpha" operator="out"/>
<feColorMatrix type="matrix" values="0 0 0 0 0 0 0 0 0 0 0 0 0 0 0 0 0 0 0.1 0"/>
<feBlend mode="normal" in2="BackgroundImageFix" result="effect1_dropShadow_98_95"/>
<feBlend mode="normal" in="SourceGraphic" in2="effect1_dropShadow_98_95" result="shape"/>
</filter>
</defs>
</svg>
