<svg width="22" height="22" viewBox="0 0 22 22" fill="none" xmlns="http://www.w3.org/2000/svg">
<g clip-path="url(#clip0_145_1410)">
<path d="M1.61624 6.84186H20.443C21.0195 6.84186 21.4889 6.37243 21.4889 5.79593C21.4889 5.21943 21.0195 4.75 20.443 4.75H1.61624C1.03975 4.75 0.570312 5.21943 0.570312 5.79593C0.570312 6.37243 1.03975 6.84186 1.61624 6.84186Z" fill="#333333"/>
<path d="M20.443 9.98438H1.61624C1.03975 9.98438 0.570312 10.4538 0.570312 11.0303C0.570312 11.6068 1.03975 12.0762 1.61624 12.0762H20.443C21.0195 12.0762 21.4889 11.6068 21.4889 11.0303C21.4889 10.4538 21.0195 9.98438 20.443 9.98438Z" fill="#333333"/>
<path d="M11.0296 15.2109H1.61624C1.03975 15.2109 0.570312 15.6804 0.570312 16.2569C0.570312 16.8334 1.03975 17.3028 1.61624 17.3028H11.0296C11.6061 17.3028 12.0756 16.8334 12.0756 16.2569C12.0756 15.6804 11.6061 15.2109 11.0296 15.2109Z" fill="#333333"/>
</g>
<defs>
<clipPath id="clip0_145_1410">
<rect width="21.0833" height="21.0833" fill="white" transform="translate(0.484375 0.484375)"/>
</clipPath>
</defs>
</svg>
