<svg width="100" height="100" viewBox="0 0 100 100" fill="none" xmlns="http://www.w3.org/2000/svg">
<rect width="100" height="100" rx="30" fill="url(#paint0_linear_16_1008)"/>
<path d="M79.397 66.64H57.04V72.3704C57.0404 72.8472 56.9468 73.3194 56.7646 73.76C56.5823 74.2005 56.3149 74.6008 55.9778 74.938C55.6406 75.2751 55.2403 75.5424 54.7997 75.7247C54.3591 75.9069 53.8869 76.0005 53.4102 76H33.6293C33.1526 76.0004 32.6804 75.9068 32.2399 75.7245C31.7994 75.5423 31.3991 75.2749 31.062 74.9378C30.7249 74.6007 30.4576 74.2004 30.2754 73.7599C30.0931 73.3193 29.9996 72.8471 30 72.3704V27.6296C30.0009 26.6673 30.3835 25.7446 31.0639 25.0641C31.7444 24.3836 32.667 24.0009 33.6293 24H53.4101C54.3725 24.0008 55.2953 24.3835 55.9758 25.064C56.6564 25.7445 57.0391 26.6672 57.04 27.6296V45.84H79.3974C80.0876 45.84 80.7496 46.1142 81.2377 46.6023C81.7258 47.0904 82 47.7524 82 48.4426V64.037C82 64.3788 81.9327 64.7173 81.8019 65.0331C81.6711 65.3489 81.4793 65.6359 81.2376 65.8776C80.9959 66.1193 80.7089 66.3111 80.3931 66.4419C80.0773 66.5727 79.7388 66.64 79.397 66.64ZM40.92 73.7952H46.12C46.4648 73.7952 46.7954 73.6582 47.0392 73.4144C47.283 73.1706 47.42 72.84 47.42 72.4952C47.42 72.1504 47.283 71.8198 47.0392 71.576C46.7954 71.3322 46.4648 71.1952 46.12 71.1952H40.92C40.5752 71.1952 40.2446 71.3322 40.0008 71.576C39.757 71.8198 39.62 72.1504 39.62 72.4952C39.62 72.84 39.757 73.1706 40.0008 73.4144C40.2446 73.6582 40.5752 73.7952 40.92 73.7952ZM46.1195 26.2135H40.9195C40.5747 26.2135 40.2441 26.3504 40.0003 26.5942C39.7565 26.838 39.6195 27.1687 39.6195 27.5135C39.6195 27.8582 39.7565 28.1889 40.0003 28.4327C40.2441 28.6765 40.5747 28.8135 40.9195 28.8135H46.1195C46.4643 28.8135 46.7949 28.6765 47.0387 28.4327C47.2825 28.1889 47.4195 27.8582 47.4195 27.5135C47.4195 27.1687 47.2825 26.838 47.0387 26.5942C46.7949 26.3504 46.4643 26.2135 46.1195 26.2135ZM54.7518 31.02H32.2877V68.98H54.7518V66.64H40.8986C40.2147 66.64 39.5588 66.3683 39.0753 65.8847C38.5917 65.4012 38.32 64.7453 38.32 64.0614V48.421C38.32 48.0821 38.3868 47.7465 38.5165 47.4333C38.6462 47.1202 38.8363 46.8356 39.076 46.596C39.3156 46.3563 39.6002 46.1662 39.9133 46.0365C40.2265 45.9068 40.5621 45.84 40.901 45.84H45.6V41.6628C45.6 41.4086 45.6754 41.1601 45.8166 40.9488C45.9578 40.7374 46.1586 40.5727 46.3934 40.4754C46.6283 40.3781 46.8867 40.3527 47.136 40.4023C47.3853 40.4519 47.6143 40.5743 47.794 40.754L52.88 45.84H54.7518V31.02ZM51.9334 55.2936C52.2317 55.1204 52.4495 54.8362 52.5391 54.503C52.6287 54.1698 52.583 53.8147 52.4118 53.5152C52.3272 53.3662 52.2139 53.2355 52.0784 53.1306C51.943 53.0258 51.788 52.9489 51.6226 52.9044C51.4571 52.8598 51.2845 52.8486 51.1147 52.8714C50.9449 52.8941 50.7813 52.9503 50.6334 53.0368L48.98 53.9936V52.08C48.98 51.7352 48.843 51.4046 48.5992 51.1608C48.3554 50.917 48.0248 50.78 47.68 50.78C47.3352 50.78 47.0046 50.917 46.7608 51.1608C46.517 51.4046 46.38 51.7352 46.38 52.08V53.9936L44.7261 53.0368C44.5782 52.9503 44.4146 52.8941 44.2448 52.8714C44.0749 52.8486 43.9023 52.8598 43.7369 52.9044C43.5714 52.9489 43.4165 53.0258 43.281 53.1306C43.1455 53.2355 43.0322 53.3662 42.9477 53.5152C42.7767 53.8148 42.7311 54.1698 42.8207 54.5029C42.9103 54.836 43.1279 55.1202 43.4261 55.2936L45.08 56.24L43.4261 57.1968C43.1268 57.3692 42.9083 57.6534 42.8186 57.9869C42.7289 58.3204 42.7753 58.6759 42.9477 58.9752C43.1201 59.2744 43.4043 59.4929 43.7378 59.5826C44.0713 59.6724 44.4268 59.6259 44.7261 59.4535L46.38 58.4968V60.4C46.38 60.7448 46.517 61.0754 46.7608 61.3192C47.0046 61.563 47.3352 61.7 47.68 61.7C48.0248 61.7 48.3554 61.563 48.5992 61.3192C48.843 61.0754 48.98 60.7448 48.98 60.4V58.4968L50.6334 59.4535C50.9327 59.6259 51.2882 59.6724 51.6217 59.5826C51.9552 59.4929 52.2394 59.2744 52.4118 58.9752C52.5842 58.6759 52.6306 58.3204 52.5409 57.9869C52.4512 57.6534 52.2327 57.3692 51.9334 57.1968L50.28 56.24L51.9334 55.2936ZM64.4134 55.2936C64.7117 55.1204 64.9295 54.8362 65.0191 54.503C65.1087 54.1698 65.063 53.8147 64.8918 53.5152C64.8072 53.3662 64.6939 53.2355 64.5584 53.1306C64.423 53.0258 64.268 52.9489 64.1026 52.9044C63.9371 52.8598 63.7645 52.8486 63.5947 52.8714C63.4249 52.8941 63.2613 52.9503 63.1134 53.0368L61.46 53.9936V52.08C61.46 51.7352 61.323 51.4046 61.0792 51.1608C60.8354 50.917 60.5048 50.78 60.16 50.78C59.8152 50.78 59.4846 50.917 59.2408 51.1608C58.997 51.4046 58.86 51.7352 58.86 52.08V53.9936L57.2061 53.0368C57.0582 52.9503 56.8946 52.8941 56.7247 52.8714C56.5549 52.8486 56.3823 52.8598 56.2169 52.9044C56.0514 52.9489 55.8965 53.0258 55.761 53.1306C55.6255 53.2355 55.5122 53.3662 55.4277 53.5152C55.2567 53.8148 55.2111 54.1698 55.3007 54.5029C55.3903 54.836 55.6079 55.1202 55.9061 55.2936L57.56 56.24L55.9061 57.1968C55.6068 57.3692 55.3883 57.6534 55.2986 57.9869C55.2089 58.3204 55.2553 58.6759 55.4277 58.9752C55.6001 59.2744 55.8843 59.4929 56.2178 59.5826C56.5513 59.6724 56.9068 59.6259 57.2061 59.4535L58.86 58.4968V60.4C58.86 60.7448 58.997 61.0754 59.2408 61.3192C59.4846 61.563 59.8152 61.7 60.16 61.7C60.5048 61.7 60.8354 61.563 61.0792 61.3192C61.323 61.0754 61.46 60.7448 61.46 60.4V58.4968L63.1134 59.4535C63.4127 59.6259 63.7682 59.6724 64.1017 59.5826C64.4352 59.4929 64.7194 59.2744 64.8918 58.9752C65.0642 58.6759 65.1106 58.3204 65.0209 57.9869C64.9312 57.6534 64.7127 57.3692 64.4134 57.1968L62.76 56.24L64.4134 55.2936ZM76.8934 55.2936C77.1917 55.1204 77.4095 54.8362 77.4991 54.503C77.5887 54.1698 77.543 53.8147 77.3718 53.5152C77.2872 53.3662 77.1739 53.2355 77.0384 53.1306C76.903 53.0258 76.748 52.9489 76.5826 52.9044C76.4171 52.8598 76.2445 52.8486 76.0747 52.8714C75.9049 52.8941 75.7413 52.9503 75.5934 53.0368L73.94 53.9936V52.08C73.94 51.7352 73.803 51.4046 73.5592 51.1608C73.3154 50.917 72.9848 50.78 72.64 50.78C72.2952 50.78 71.9646 50.917 71.7208 51.1608C71.477 51.4046 71.34 51.7352 71.34 52.08V53.9936L69.6861 53.0368C69.5382 52.9503 69.3745 52.8941 69.2047 52.8714C69.0349 52.8486 68.8623 52.8598 68.6969 52.9044C68.5314 52.9489 68.3765 53.0258 68.241 53.1306C68.1055 53.2355 67.9922 53.3662 67.9077 53.5152C67.7367 53.8148 67.6911 54.1698 67.7807 54.5029C67.8703 54.836 68.0879 55.1202 68.3861 55.2936L70.04 56.24L68.3861 57.1968C68.0868 57.3692 67.8683 57.6534 67.7786 57.9869C67.6889 58.3204 67.7353 58.6759 67.9077 58.9752C68.0801 59.2744 68.3643 59.4929 68.6978 59.5826C69.0313 59.6724 69.3868 59.6259 69.6861 59.4535L71.34 58.4968V60.4C71.34 60.7448 71.477 61.0754 71.7208 61.3192C71.9646 61.563 72.2952 61.7 72.64 61.7C72.9848 61.7 73.3154 61.563 73.5592 61.3192C73.803 61.0754 73.94 60.7448 73.94 60.4V58.4968L75.5934 59.4535C75.7416 59.5389 75.9052 59.5942 76.0747 59.6164C76.2443 59.6385 76.4166 59.6271 76.5817 59.5826C76.7468 59.5382 76.9016 59.4617 77.0372 59.3575C77.1727 59.2533 77.2864 59.1233 77.3718 58.9752C77.4572 58.827 77.5125 58.6634 77.5346 58.4939C77.5568 58.3243 77.5453 58.152 77.5009 57.9869C77.4565 57.8218 77.38 57.667 77.2758 57.5314C77.1715 57.3959 77.0416 57.2822 76.8934 57.1968L75.24 56.24L76.8934 55.2936Z" fill="#4F3C12"/>
<defs>
<linearGradient id="paint0_linear_16_1008" x1="214.423" y1="283.654" x2="-11.925" y2="-9.07878" gradientUnits="userSpaceOnUse">
<stop stop-color="#BF943D"/>
<stop offset="0.22" stop-color="#FCF7BC"/>
<stop offset="0.59" stop-color="#B3882D"/>
<stop offset="0.82" stop-color="#FBF6B8"/>
<stop offset="1" stop-color="#AA782B"/>
</linearGradient>
</defs>
</svg>
