<svg width="188" height="30" viewBox="0 0 188 30" fill="none" xmlns="http://www.w3.org/2000/svg">
<path d="M48.2322 22.7946L43.4407 16.6266C46.5171 15.9064 48.668 13.8981 48.668 10.5694V10.5126C48.668 8.8429 48.0574 7.35746 47.0261 6.32513C45.7083 5.00728 43.6446 4.21875 41.0697 4.21875H33.4685C32.7217 4.21875 32.0781 4.85583 32.0781 5.6379V23.7715C32.0781 24.5538 32.7217 25.1909 33.4685 25.1909C34.2476 25.1909 34.8866 24.5521 34.8866 23.7715V17.154H40.3321L45.9704 24.4789C46.28 24.8917 46.6981 25.1909 47.2488 25.1909C47.9599 25.1909 48.668 24.5474 48.668 23.7993C48.668 23.42 48.5063 23.1037 48.2322 22.7946ZM45.8304 10.5995L45.8307 10.6573H45.8304C45.8304 13.1264 43.7471 14.5771 40.8659 14.5771H34.8866V6.85346H40.8949C43.9919 6.85346 45.8304 8.24207 45.8304 10.5995Z" fill="black"/>
<path d="M52.7578 23.6268C52.7578 24.4079 53.4013 25.0452 54.1482 25.0452H66.9138C67.6378 25.0452 68.2163 24.4657 68.2163 23.7417C68.2163 23.0187 67.638 22.4393 66.9138 22.4393H55.5666V15.8475H65.4634C66.1876 15.8475 66.7668 15.269 66.7668 14.5451C66.7668 13.8571 66.1876 13.2416 65.4634 13.2416H55.5666V6.82565H66.769C67.4918 6.82565 68.0725 6.24618 68.0725 5.5222C68.0725 4.79823 67.4918 4.21875 66.769 4.21875H54.1482C53.4016 4.21875 52.7578 4.85583 52.7578 5.63815V23.6268Z" fill="black"/>
<path d="M80.0276 25.2666L80.1798 25.2661C80.9398 25.2529 81.4133 24.8249 81.7137 24.1558L89.5811 5.98342C89.6511 5.80863 89.6866 5.63384 89.6866 5.42405C89.6866 4.70926 89.0823 4.0625 88.2962 4.0625C87.6733 4.0625 87.1768 4.53274 86.9334 5.01712C86.9307 5.02259 86.9282 5.02805 86.9257 5.03376L80.1155 21.3468L73.3321 5.09161C73.0903 4.50319 72.5972 4.0625 71.9048 4.0625C71.1212 4.0625 70.4844 4.74203 70.4844 5.45186C70.4844 5.69988 70.5221 5.87616 70.6271 6.08719L78.4548 24.1503C78.7277 24.8306 79.2443 25.2666 80.0276 25.2666Z" fill="black"/>
<path d="M93.3984 5.48165V23.76C93.3984 24.5423 94.042 25.1794 94.7888 25.1794C95.5679 25.1794 96.2069 24.5406 96.2069 23.76V5.48165C96.2069 4.70107 95.5679 4.0625 94.7888 4.0625C94.042 4.0625 93.3984 4.69933 93.3984 5.48165Z" fill="black"/>
<path d="M115.404 4.21925L115.37 4.21875H102.749C102.003 4.21875 101.359 4.85583 101.359 5.63815V23.6268C101.359 24.4079 102.003 25.0452 102.749 25.0452C102.748 25.0452 115.515 25.0452 115.515 25.0452C116.238 25.0452 116.818 24.4657 116.818 23.7417C116.818 23.0187 116.238 22.4393 115.515 22.4393H104.168V15.8475H114.064C114.789 15.8475 115.367 15.269 115.367 14.5451C115.367 13.8571 114.789 13.2416 114.064 13.2416H104.168V6.82565H115.37C116.093 6.82565 116.674 6.24618 116.674 5.5222C116.674 4.80965 116.111 4.23687 115.404 4.21925Z" fill="black"/>
<path d="M140.271 25.2941H140.509C141.186 25.2797 141.673 24.8159 141.911 24.1342C141.91 24.1364 148.41 6.09092 148.41 6.09092C148.41 6.08844 148.411 6.0862 148.412 6.08372C148.477 5.8851 148.57 5.65048 148.57 5.45186C148.57 4.74054 147.897 4.0625 147.15 4.0625C146.482 4.0625 146.014 4.50493 145.802 5.13803C145.803 5.1353 140.426 20.6017 140.426 20.6017L135.355 5.13853C135.145 4.50691 134.68 4.0625 133.979 4.0625V4.06473L133.833 4.0625C133.097 4.0625 132.666 4.50691 132.456 5.13853L127.386 20.6012L122.038 5.19216C121.83 4.57072 121.299 4.0625 120.603 4.0625C119.825 4.0625 119.156 4.73732 119.156 5.4809C119.156 5.68275 119.217 5.88435 119.284 6.08496L125.785 24.1347C126.024 24.8492 126.511 25.2807 127.187 25.2941H127.425C128.101 25.2797 128.589 24.8157 128.826 24.1337L133.834 9.24949L138.87 24.1342C139.109 24.8159 139.596 25.2797 140.271 25.2941Z" fill="black"/>
<path d="M163.23 19.4992V19.5571C163.23 21.4313 161.516 22.7517 158.963 22.7517C156.454 22.7517 154.591 21.9912 152.73 20.4146L152.725 20.4099C152.541 20.2302 152.216 20.0814 151.855 20.0814C151.104 20.0814 150.492 20.686 150.492 21.4718C150.492 21.9376 150.712 22.3308 151.032 22.5506C153.341 24.3826 155.857 25.3285 158.876 25.3285C163.071 25.3285 166.067 22.9471 166.067 19.3254V19.2664C166.067 16.0487 163.94 14.2931 159.249 13.2702C159.249 13.2702 159.249 13.27 159.248 13.27C154.987 12.3563 153.94 11.4037 153.94 9.57637V9.51852C153.94 7.81237 155.541 6.49874 158.005 6.49874C159.836 6.49874 161.442 7.0077 163.104 8.21905C163.105 8.21954 163.105 8.21979 163.106 8.22029C163.353 8.39805 163.603 8.47154 163.924 8.47154C164.675 8.47154 165.284 7.86376 165.284 7.11024C165.284 6.58017 164.971 6.18864 164.688 5.97537C164.686 5.97438 164.685 5.97314 164.683 5.97214C162.783 4.60637 160.795 3.92188 158.063 3.92188C154.042 3.92188 151.131 6.3967 151.131 9.72211L151.389 9.98082C151.389 9.98082 151.131 9.72385 151.131 9.72385V9.77773L151.389 10.0377L151.131 9.77922C151.131 13.235 153.316 14.8423 158.154 15.8933C158.154 15.8933 158.155 15.8935 158.155 15.8935C162.214 16.7503 163.23 17.704 163.23 19.4992Z" fill="black"/>
<path d="M169.264 22.3284L169.239 22.3281C168.693 22.3281 168.305 22.7189 168.305 23.2458V23.5705C168.305 24.0966 168.694 24.5048 169.239 24.5048C169.765 24.5048 170.157 24.0976 170.157 23.5705C170.157 23.6564 170.087 23.7257 170.001 23.7257C170.001 23.7257 170.157 23.7083 170.157 23.5633V23.2458C170.157 22.7261 169.778 22.3403 169.264 22.3284ZM168.474 23.7234C168.465 23.7252 168.46 23.7257 168.46 23.7257C168.465 23.7257 168.469 23.7257 168.474 23.7252L168.474 23.7234Z" fill="black"/>
<path d="M172.567 16.4312V23.7171C172.567 24.1615 172.911 24.5054 173.354 24.5054C173.801 24.5054 174.127 24.1625 174.127 23.7171V16.4312C174.127 15.9855 173.783 15.6429 173.339 15.6429C172.914 15.6429 172.567 16.0064 172.567 16.4312ZM172.453 13.4613C172.453 13.9377 172.843 14.2816 173.339 14.2816C173.853 14.2816 174.24 13.9367 174.24 13.4613V13.2512C174.24 12.7554 173.853 12.4297 173.339 12.4297C172.843 12.4297 172.453 12.7544 172.453 13.2512L172.453 13.4613Z" fill="black"/>
<path fill-rule="evenodd" clip-rule="evenodd" d="M185.268 20.0874L185.268 20.0521C185.268 17.5976 183.353 15.5469 180.748 15.5469C178.127 15.5469 176.211 17.6314 176.211 20.0841L176.243 20.1164L176.211 20.0851V20.1164C176.211 22.5699 178.11 24.6204 180.715 24.6204C183.336 24.6204 185.266 22.5386 185.268 20.0874ZM183.676 20.1164V20.0841C183.676 18.3705 182.398 16.9601 180.715 16.9601C178.987 16.9601 177.803 18.37 177.803 20.0521V20.0841C177.803 21.7975 179.065 23.1898 180.748 23.1898C182.475 23.1898 183.676 21.7982 183.676 20.1164Z" fill="black"/>
<path fill-rule="evenodd" clip-rule="evenodd" d="M23.6152 5.82812L22.3679 6.45378C24.7995 8.4174 25.9883 10.9538 26.2092 14.023C26.0245 19.9471 23.2294 23.7547 18.428 25.3876C12.8808 27.059 9.36565 25.7066 5.96426 22.2409L5.75 23.5732L7.1329 25.0142C11.9433 30.0271 19.9186 30.1917 24.9316 25.3814C29.9445 20.5708 30.1092 12.5956 25.2985 7.58245L23.6152 5.82812Z" fill="#FEEF7C"/>
<path fill-rule="evenodd" clip-rule="evenodd" d="M5.07275 22.8293L5.90845 22.0994C2.4363 17.179 2.29081 9.97553 7.04258 6.00981C10.5649 3.07021 17.5539 1.54654 23.1453 6.46961L23.5626 5.73546L22.2001 4.31532C17.3895 -0.697632 9.41436 -0.86224 4.40116 3.94837C-0.61179 8.75873 -0.77615 16.7341 4.03421 21.7471L5.07275 22.8293Z" fill="#5CD3CB"/>
<path d="M2.0625 14.6996C2.0625 21.6648 7.7098 27.3121 14.6749 27.3121C21.6413 27.3121 27.2884 21.6648 27.2884 14.6996C27.2884 7.73324 21.6413 2.08594 14.6749 2.08594C7.7098 2.08594 2.0625 7.73324 2.0625 14.6996ZM10.8413 16.9808C10.9739 16.5612 10.8264 16.1039 10.4739 15.8405C9.54034 15.1433 7.69987 13.7688 6.4632 12.8452C6.28469 12.7119 6.2117 12.4793 6.28196 12.2678C6.35222 12.0562 6.54985 11.9137 6.7728 11.9137H11.566C12.0122 11.9137 12.4079 11.6277 12.5482 11.2044C12.9261 10.0631 13.6771 7.79481 14.1752 6.29125C14.2452 6.07996 14.4426 5.93695 14.6653 5.93671C14.888 5.93646 15.0861 6.07872 15.1566 6.28976C15.6599 7.79456 16.4198 10.0665 16.8014 11.2074C16.9427 11.6292 17.3377 11.9137 17.7826 11.9137C18.9165 11.9137 21.1008 11.9137 22.588 11.9137C22.8102 11.9137 23.0079 12.0557 23.0784 12.2668C23.1489 12.4778 23.0769 12.7102 22.8991 12.844C21.6662 13.7728 19.8247 15.1597 18.8932 15.8613C18.5426 16.1252 18.3969 16.5818 18.5292 16.9999C18.8894 18.1375 19.6119 20.4189 20.1 21.96C20.1681 22.1752 20.0886 22.4101 19.9037 22.5397C19.7187 22.6693 19.4712 22.6641 19.2919 22.5265C18.0532 21.5756 16.2436 20.1865 15.2959 19.4593C14.9232 19.1733 14.4048 19.1741 14.0332 19.4616C13.0947 20.187 11.3096 21.5675 10.0813 22.5171C9.90258 22.6554 9.65455 22.6616 9.46909 22.532C9.28362 22.4027 9.20368 22.1678 9.27171 21.9523C9.75982 20.4068 10.4813 18.1214 10.8413 16.9808Z" fill="black"/>
</svg>
