<svg width="202" height="251" viewBox="0 0 202 251" fill="none" xmlns="http://www.w3.org/2000/svg">
<rect x="1" width="194" height="194" rx="40" fill="white"/>
<path d="M68.3041 100.555C69.3961 101.059 70.5411 101.552 71.7286 102.029L71.6596 102.055C71.6596 102.055 72.317 102.299 73.4673 102.712C74.9304 103.274 76.4624 103.815 78.0633 104.345C78.6623 104.557 79.2931 104.775 79.9451 105.003C78.6252 101.711 78.1958 98.1112 78.7259 94.5065C79.4415 89.6561 81.8853 85.235 85.6013 82.0544C86.0678 81.6568 86.5502 81.2752 87.0485 80.9253C86.8789 80.8723 86.7092 80.8193 86.5449 80.7663C82.1451 79.2237 78.5881 77.803 75.874 76.4989C67.3393 72.3429 60.6547 64.0415 60.6547 56.4399C60.6547 48.8382 64.551 38.9041 81.3764 31.1116C81.3764 31.1116 72.0148 31.6417 64.7789 36.0681C61.6301 37.9923 53.2386 43.6909 49.4908 51.7326C46.7767 57.5531 45.4143 63.1298 45.4143 68.4785C45.4143 82.7329 53.0478 93.4251 68.3094 100.555H68.3041Z" fill="black"/>
<path d="M128.115 94.7503C127.023 94.2467 125.878 93.7537 124.691 93.2766L124.76 93.2501C124.76 93.2501 124.103 93.0063 122.952 92.5928C121.489 92.0309 119.957 91.4902 118.356 90.9601C118.234 90.9177 118.107 90.8753 117.98 90.8276C119.024 93.8227 119.379 97.0987 118.886 100.449C118.393 103.81 117.105 106.911 115.123 109.572C116.363 109.842 117.487 110.558 118.256 111.592L125.481 121.43C125.656 121.664 125.81 121.913 125.942 122.172C131.736 126.652 135.76 132.971 135.76 138.871C135.76 146.234 131.863 156.406 115.038 164.199C115.038 164.199 124.399 163.669 131.635 159.243C134.784 157.318 143.176 151.62 146.923 143.578C149.638 137.757 151 132.181 151 126.832C151 112.578 143.366 101.886 128.105 94.7556L128.115 94.7503Z" fill="black"/>
<path d="M148.572 79.0169C151.747 66.8882 149.431 58.4277 147.279 53.625C145.132 48.8223 140.525 42.2702 131.164 35.8666C121.802 29.463 105.947 28.3339 93.5794 29.9348C104.765 32.6701 121.07 39.4554 126.106 52.4217C115.547 42.3604 100.927 35.8984 88.4003 35.1934C81.5991 62.5837 113.071 67.8052 148.572 79.0116V79.0169Z" fill="black"/>
<path d="M47.0841 115.567C43.9088 127.696 46.2253 136.157 48.3775 140.959C50.5244 145.762 55.131 152.314 64.4926 158.718C73.8542 165.121 89.7149 166.25 102.077 164.65C90.8917 161.914 74.5858 155.129 69.5498 142.163C80.1094 152.224 94.7296 158.686 107.256 159.391C114.057 132.001 82.585 126.779 47.0841 115.573V115.567Z" fill="black"/>
<path d="M119.814 128.846L122.767 126.652C123.991 125.745 124.246 124.012 123.339 122.787L116.119 112.959C115.239 111.777 113.596 111.496 112.382 112.302L110.876 110.272C113.691 107.626 115.669 104.048 116.278 99.9294C117.71 90.2233 111.004 81.1956 101.303 79.7643C91.5967 78.3331 82.5691 85.0389 81.1378 94.7397C79.7065 104.446 86.4123 113.474 96.1132 114.905C100.253 115.514 104.271 114.645 107.632 112.689L109.138 114.719C108.062 115.658 107.871 117.28 108.735 118.446L115.955 128.274C116.861 129.498 118.595 129.753 119.819 128.846H119.814Z" fill="black"/>
<path fill-rule="evenodd" clip-rule="evenodd" d="M127.32 94.7503C126.228 94.2467 125.083 93.7537 123.896 93.2766L123.965 93.2501C123.965 93.2501 123.307 93.0063 122.157 92.5928C120.694 92.0309 119.162 91.4902 117.561 90.9601C117.439 90.9177 117.312 90.8753 117.185 90.8276C118.229 93.8226 118.584 97.0987 118.091 100.449C117.598 103.81 116.31 106.911 114.328 109.572C115.568 109.842 116.692 110.558 117.46 111.592L124.686 121.43C124.861 121.664 125.014 121.913 125.147 122.172C130.941 126.652 134.964 132.971 134.964 138.871C134.964 146.234 131.068 156.406 114.243 164.199C114.243 164.199 123.604 163.669 130.84 159.243C133.989 157.318 142.381 151.62 146.128 143.578C148.842 137.757 150.205 132.181 150.205 126.832C150.205 112.578 142.571 101.885 127.31 94.7556L127.32 94.7503ZM79.15 105.008C77.83 101.716 77.4006 98.1165 77.9307 94.5118C78.6464 89.6613 81.0901 85.2403 84.8062 82.0597C85.2726 81.6621 85.755 81.2804 86.2533 80.9306C86.0837 80.8776 85.9141 80.8245 85.7497 80.7715C81.3499 79.2289 77.7929 77.8083 75.0788 76.5042C66.5442 72.3482 59.8596 64.0468 59.8596 56.4452C59.8596 48.8435 63.7558 38.9094 80.5813 31.1169C80.5813 31.1169 71.2197 31.647 63.9838 36.0733C60.835 37.9976 52.4434 43.6962 48.6956 51.7379C45.9815 57.5584 44.6191 63.135 44.6191 68.4838C44.6191 82.7382 52.2526 93.4304 67.5142 100.56C68.6063 101.064 69.7513 101.557 70.9387 102.034L70.8698 102.06C70.8698 102.06 71.5271 102.304 72.6774 102.718C74.1405 103.28 75.6725 103.82 77.2734 104.35C77.8724 104.562 78.5033 104.78 79.1553 105.008H79.15Z" fill="url(#paint0_linear_11_267)"/>
<path fill-rule="evenodd" clip-rule="evenodd" d="M147.777 79.0169C112.271 67.8159 80.804 62.589 87.6052 35.1987C100.137 35.909 114.757 42.371 125.311 52.427C120.275 39.4607 103.969 32.6701 92.7843 29.9401C105.146 28.3392 121.007 29.4683 130.369 35.8719C139.73 42.2755 144.337 48.8276 146.484 53.6303C148.631 58.4277 150.952 66.8935 147.777 79.0222V79.0169Z" fill="url(#paint1_linear_11_267)"/>
<path fill-rule="evenodd" clip-rule="evenodd" d="M46.2891 115.567C81.7953 126.768 113.262 131.995 106.461 159.386C93.9294 158.675 79.3091 152.213 68.7548 142.157C73.7908 155.124 90.0967 161.914 101.282 164.644C88.9199 166.245 73.0592 165.116 63.6976 158.712C54.336 152.309 49.7295 145.757 47.5825 140.954C45.4356 136.157 43.1138 127.691 46.2891 115.562V115.567Z" fill="url(#paint2_linear_11_267)"/>
<path d="M87.1599 107.733C93.15 113.717 102.443 113.792 108.39 107.796C114.386 101.848 114.312 92.5557 108.327 86.5655C102.384 80.5277 93.2561 80.6178 87.2553 86.661C81.2122 92.6617 81.1273 101.79 87.1599 107.733Z" fill="#CFE9DE"/>
<path d="M87.1808 86.7299C91.2785 90.0112 93.9714 95.2645 93.9767 101.138C93.982 104.668 93.0226 107.966 91.3792 110.749C86.2744 108.273 82.5743 103.11 82.6114 97.2471C82.6326 93.1971 84.419 89.4917 87.1755 86.7352L87.1808 86.7299Z" fill="#F0F8F4"/>
<path d="M104.462 106.54C110.415 100.608 110.32 91.1827 104.409 85.2085C103.227 84.0105 101.913 83.051 100.524 82.3406C103.354 82.8813 106.084 84.3126 108.337 86.5868C114.312 92.5822 114.386 101.88 108.401 107.833C103.657 112.599 96.7918 113.574 91.1621 110.659C95.8376 111.613 100.805 110.224 104.468 106.545L104.462 106.54Z" fill="#A8D9C4"/>
<path d="M122.544 122.787L115.324 112.959C114.444 111.777 112.801 111.496 111.587 112.302L110.081 110.272C112.896 107.626 114.873 104.048 115.483 99.9294C116.914 90.2233 110.209 81.1956 100.508 79.7643C90.8015 78.3331 81.7739 85.0389 80.3426 94.7397C78.9113 104.446 85.6171 113.474 95.318 114.905C99.4581 115.514 103.476 114.645 106.837 112.689L108.343 114.719C107.266 115.658 107.076 117.28 107.94 118.446L115.16 128.274C116.066 129.498 117.8 129.753 119.024 128.846L121.977 126.652C123.201 125.745 123.456 124.012 122.549 122.787H122.544ZM83.343 95.185C84.5304 87.1381 92.0155 81.5826 100.062 82.77C108.109 83.9574 113.665 91.4425 112.477 99.4894C111.29 107.536 103.805 113.092 95.758 111.904C87.711 110.717 82.1556 103.232 83.343 95.185Z" fill="url(#paint3_linear_11_267)"/>
<g filter="url(#filter0_d_11_267)">
<path d="M12.5328 241.745C11.2623 241.745 10.0108 241.617 8.77837 241.376C7.53959 241.128 6.40245 240.76 5.36695 240.264C4.33146 239.769 3.51195 239.172 2.90844 238.479C2.30493 237.78 2.00635 237.005 2.00635 236.135V230.894H3.11808C3.6136 234.077 4.61733 236.351 6.13563 237.711C7.64759 239.07 9.70587 239.75 12.3041 239.75C13.4476 239.75 14.4704 239.578 15.3662 239.242C16.2619 238.899 16.9671 238.384 17.4753 237.685C17.9835 236.993 18.2376 236.148 18.2376 235.157C18.2376 233.829 17.812 232.705 16.9607 231.796C16.1094 230.888 14.9151 229.948 13.3651 228.988L7.66029 225.602C5.5893 224.395 4.12817 223.163 3.2769 221.892C2.42563 220.622 2 219.142 2 217.439C2 215 2.89574 213.062 4.68721 211.645C6.47868 210.222 8.86096 209.511 11.8277 209.511C13.0665 209.511 14.2862 209.638 15.4932 209.879C16.7002 210.127 17.8056 210.489 18.8094 210.972C19.8131 211.448 20.6199 212.033 21.2234 212.713C21.8269 213.392 22.1255 214.18 22.1255 215.076V220.317H21.0138C20.4865 217.134 19.4891 214.866 18.0216 213.526C16.5541 212.179 14.5975 211.505 12.158 211.505C11.1352 211.505 10.2077 211.69 9.37553 212.065C8.54332 212.433 7.88899 212.96 7.42524 213.64C6.96149 214.32 6.73279 215.139 6.73279 216.099C6.73279 217.394 7.17113 218.462 8.05416 219.3C8.93719 220.133 10.1506 221.003 11.6943 221.899L17.399 225.285C19.4383 226.492 20.9375 227.673 21.8968 228.829C22.856 229.992 23.3325 231.421 23.3325 233.118C23.3325 235.779 22.3796 237.882 20.4801 239.426C18.5807 240.97 15.9252 241.745 12.5265 241.745H12.5328Z" fill="white"/>
<path d="M45.2304 241.421C43.9598 241.421 42.7655 241.147 41.6347 240.607C40.5039 240.067 39.4176 239.102 38.3631 237.711L33.4905 231.218V240.957H28.205V216.194C28.205 214.803 28.0144 213.684 27.6269 212.833C27.2394 211.982 26.35 211.556 24.9588 211.556H24.3108V210.349H29.3168C30.3967 210.349 31.2416 210.521 31.8451 210.858C32.4487 211.201 32.8743 211.785 33.122 212.617C33.3698 213.449 33.4905 214.644 33.4905 216.187V229.592L39.1508 222.496C40.0148 221.448 40.9042 220.628 41.8189 220.037C42.7337 219.453 43.9725 219.154 45.5544 219.154H46.7169V220.361C45.8212 220.361 44.9953 220.539 44.233 220.895C43.477 221.251 42.7846 221.816 42.1683 222.585L37.3911 228.474L43.4198 236.313C44.252 237.425 45.0461 238.27 45.7831 238.841C46.5263 239.413 47.2823 239.775 48.0573 239.928V240.95C47.8096 241.071 47.4094 241.186 46.8503 241.274C46.2913 241.37 45.7513 241.414 45.2304 241.414V241.421Z" fill="white"/>
<path d="M52.0912 240.957V225.005C52.0912 223.614 51.9007 222.496 51.5132 221.644C51.1256 220.793 50.2363 220.368 48.845 220.368H48.197V219.161H52.6503C53.7303 219.161 54.5752 219.307 55.1787 219.599C55.7822 219.891 56.2396 220.336 56.5445 220.92C57.129 220.393 57.9485 219.891 59.003 219.415C60.0512 218.938 61.4298 218.697 63.1323 218.697C64.8349 218.697 66.2706 218.97 67.5411 219.51C68.8053 220.05 69.79 220.933 70.4888 222.153C71.1876 223.372 71.5306 225.037 71.5306 227.14V240.957H66.2896V227.14C66.2896 225.596 66.0736 224.37 65.6416 223.474C65.2097 222.578 64.6443 221.93 63.9518 221.524C63.2594 221.124 62.478 220.92 61.6077 220.92C60.7373 220.92 59.9051 221.085 59.1936 221.409C58.4821 221.733 57.8659 222.127 57.3386 222.591V240.957H52.0976H52.0912Z" fill="white"/>
<path d="M113.306 243.041C111.083 243.041 109.342 242.691 108.091 241.999C106.839 241.306 105.963 240.22 105.473 238.752C104.978 237.285 104.73 235.392 104.73 233.073V215.222L93.1364 240.957H92.2089L80.1514 214.752V240.957H78.2964V210.349H82.7052L93.8352 234.464L104.737 210.349H108.91V233.073C108.91 235.887 109.266 238.098 109.978 239.705C110.689 241.313 111.801 242.119 113.319 242.119V243.047L113.306 243.041Z" fill="white"/>
<path d="M122.073 241.421C121.425 241.421 120.72 241.319 119.964 241.122C119.208 240.919 118.471 240.576 117.76 240.08C117.048 239.585 116.47 238.918 116.019 238.085C115.568 237.253 115.345 236.199 115.345 234.934C115.345 233.232 115.892 231.917 116.991 230.989C118.09 230.062 119.538 229.408 121.349 229.02C123.159 228.633 125.097 228.442 127.168 228.442H128.559C128.559 226.276 128.343 224.63 127.911 223.506C127.479 222.375 126.901 221.606 126.171 221.187C125.446 220.768 124.614 220.558 123.687 220.558C122.391 220.558 121.298 220.838 120.415 221.39C119.532 221.949 118.922 222.985 118.585 224.497H116.495C116.495 223.696 116.54 222.94 116.635 222.248C116.73 221.549 117.067 220.914 117.658 220.323C118.242 219.739 119.202 219.319 120.536 219.072C121.863 218.824 123.223 218.703 124.614 218.703C125.662 218.703 126.679 218.83 127.651 219.072C128.623 219.319 129.487 219.777 130.249 220.437C131.005 221.105 131.608 222.076 132.06 223.36C132.511 224.643 132.733 226.333 132.733 228.436V240.957H130.414L128.788 238.867H128.559C128.095 239.451 127.339 240.029 126.285 240.582C125.23 241.141 123.826 241.414 122.067 241.414L122.073 241.421ZM124.157 239.331C125.3 239.331 126.202 239.045 126.869 238.473C127.536 237.901 128.095 237.26 128.566 236.548V230.284H127.174C124.856 230.284 123.039 230.71 121.724 231.561C120.409 232.412 119.754 233.53 119.754 234.922C119.754 236.44 120.205 237.552 121.101 238.263C121.997 238.975 123.02 239.331 124.163 239.331H124.157Z" fill="white"/>
<path d="M145.629 241.421C143.99 241.421 142.656 240.944 141.621 239.985C140.585 239.026 140.064 237.495 140.064 235.392V221.016H136.818V219.161H140.064V214.987L142.383 212.204H144.238V219.161H149.803V221.016H144.238V235.392C144.238 236.783 144.511 237.825 145.051 238.524C145.591 239.216 146.404 239.566 147.484 239.566C148.285 239.566 148.952 239.47 149.479 239.286C150.006 239.102 150.502 238.886 150.965 238.638L151.429 239.566C150.934 239.934 150.254 240.341 149.39 240.773C148.526 241.205 147.274 241.421 145.635 241.421H145.629Z" fill="white"/>
<path d="M163.804 241.421C161.517 241.421 159.618 240.912 158.1 239.89C156.581 238.867 155.457 237.495 154.714 235.76C153.97 234.026 153.602 232.126 153.602 230.056C153.602 227.985 153.97 226.047 154.714 224.325C155.457 222.61 156.581 221.244 158.1 220.221C159.612 219.199 161.517 218.69 163.804 218.69C165.443 218.69 166.828 218.818 167.953 219.059C169.083 219.307 169.941 219.726 170.525 220.31C171.11 220.901 171.453 221.619 171.548 222.464C171.644 223.315 171.688 224.605 171.688 226.339H170.761C170.634 224.363 170.011 222.902 168.88 221.956C167.749 221.016 166.364 220.539 164.732 220.539C163.188 220.539 161.918 220.965 160.927 221.816C159.935 222.667 159.205 223.804 158.722 225.227C158.246 226.65 158.004 228.258 158.004 230.049C158.004 231.841 158.246 233.41 158.722 234.852C159.199 236.288 159.935 237.431 160.927 238.282C161.918 239.134 163.182 239.559 164.732 239.559C166.371 239.559 167.699 239.235 168.721 238.587C169.744 237.939 170.653 237.024 171.459 235.849L172.387 236.548C171.707 237.723 170.932 238.663 170.068 239.375C169.204 240.086 168.251 240.601 167.216 240.931C166.18 241.255 165.043 241.421 163.804 241.421Z" fill="white"/>
<path d="M177.253 240.957V215.914C177.253 214.523 177.063 213.405 176.675 212.554C176.287 211.702 175.398 211.277 174.007 211.277H173.079V210.349H177.253C178.333 210.349 179.178 210.489 179.781 210.769C180.385 211.048 180.811 211.588 181.058 212.395C181.306 213.202 181.427 214.377 181.427 215.921V221.022C182.011 220.437 182.818 219.904 183.841 219.421C184.864 218.945 186.064 218.703 187.456 218.703C188.447 218.703 189.412 218.83 190.352 219.072C191.293 219.319 192.138 219.745 192.881 220.349C193.624 220.952 194.215 221.803 194.666 222.896C195.111 223.995 195.339 225.38 195.339 227.044V240.957H191.166V227.044C191.166 225.501 190.918 224.268 190.422 223.36C189.927 222.445 189.292 221.791 188.523 221.39C187.748 220.99 186.928 220.787 186.064 220.787C185.137 220.787 184.279 221.035 183.491 221.53C182.704 222.026 182.018 222.597 181.427 223.245V240.963H177.253V240.957Z" fill="white"/>
</g>
<defs>
<filter id="filter0_d_11_267" x="0" y="208.511" width="201.339" height="41.5361" filterUnits="userSpaceOnUse" color-interpolation-filters="sRGB">
<feFlood flood-opacity="0" result="BackgroundImageFix"/>
<feColorMatrix in="SourceAlpha" type="matrix" values="0 0 0 0 0 0 0 0 0 0 0 0 0 0 0 0 0 0 127 0" result="hardAlpha"/>
<feOffset dx="2" dy="3"/>
<feGaussianBlur stdDeviation="2"/>
<feComposite in2="hardAlpha" operator="out"/>
<feColorMatrix type="matrix" values="0 0 0 0 0 0 0 0 0 0 0 0 0 0 0 0 0 0 0.25 0"/>
<feBlend mode="normal" in2="BackgroundImageFix" result="effect1_dropShadow_11_267"/>
<feBlend mode="normal" in="SourceGraphic" in2="effect1_dropShadow_11_267" result="shape"/>
</filter>
<linearGradient id="paint0_linear_11_267" x1="63.9679" y1="36.0415" x2="134.212" y2="165.439" gradientUnits="userSpaceOnUse">
<stop stop-color="#83CBAD"/>
<stop offset="1" stop-color="#06836D"/>
</linearGradient>
<linearGradient id="paint1_linear_11_267" x1="125.2" y1="-18.6862" x2="116.003" y2="75.8363" gradientUnits="userSpaceOnUse">
<stop stop-color="#BF943D"/>
<stop offset="0.22" stop-color="#FCF7BC"/>
<stop offset="0.59" stop-color="#B3882D"/>
<stop offset="0.82" stop-color="#FBF6B8"/>
<stop offset="1" stop-color="#AA782B"/>
</linearGradient>
<linearGradient id="paint2_linear_11_267" x1="73.3561" y1="214.861" x2="76.8919" y2="116.532" gradientUnits="userSpaceOnUse">
<stop stop-color="#BF943D"/>
<stop offset="0.22" stop-color="#FCF7BC"/>
<stop offset="0.59" stop-color="#B3882D"/>
<stop offset="0.82" stop-color="#FBF6B8"/>
<stop offset="1" stop-color="#AA782B"/>
</linearGradient>
<linearGradient id="paint3_linear_11_267" x1="92.4236" y1="80.6337" x2="108.809" y2="130.548" gradientUnits="userSpaceOnUse">
<stop stop-color="#83CBAD"/>
<stop offset="1" stop-color="#06836D"/>
</linearGradient>
</defs>
</svg>
