<svg width="64" height="63" viewBox="0 0 64 63" fill="none" xmlns="http://www.w3.org/2000/svg">
<path fill-rule="evenodd" clip-rule="evenodd" d="M18.469 0.249634H45.5627C56.1565 0.249634 63.2502 7.68713 63.2502 18.7496V44.284C63.2502 55.3121 56.1565 62.7496 45.5627 62.7496H18.469C7.87524 62.7496 0.750244 55.3121 0.750244 44.284V18.7496C0.750244 7.68713 7.87524 0.249634 18.469 0.249634ZM30.219 40.8434L45.0627 25.9996C46.1252 24.9371 46.1252 23.2184 45.0627 22.1246C44.0002 21.0621 42.2502 21.0621 41.1877 22.1246L28.2815 35.0309L22.8127 29.5621C21.7502 28.4996 20.0002 28.4996 18.9377 29.5621C17.8752 30.6246 17.8752 32.3434 18.9377 33.4371L26.3752 40.8434C26.9065 41.3746 27.594 41.6246 28.2815 41.6246C29.0002 41.6246 29.6877 41.3746 30.219 40.8434Z" fill="#A2AA7B"/>
</svg>
