<svg width="20" height="20" viewBox="0 0 20 20" fill="none" xmlns="http://www.w3.org/2000/svg">
<path fill-rule="evenodd" clip-rule="evenodd" d="M7.99293 12.6722C11.0671 12.6722 13.6946 13.1381 13.6946 14.9989C13.6946 16.8597 11.0846 17.3389 7.99293 17.3389C4.91793 17.3389 2.29126 16.8772 2.29126 15.0156C2.29126 13.1539 4.90043 12.6722 7.99293 12.6722Z" stroke="#130F26" stroke-width="1.5" stroke-linecap="round" stroke-linejoin="round"/>
<path fill-rule="evenodd" clip-rule="evenodd" d="M7.99289 10.0165C5.97456 10.0165 4.33789 8.38063 4.33789 6.3623C4.33789 4.34396 5.97456 2.70813 7.99289 2.70813C10.0104 2.70813 11.6471 4.34396 11.6471 6.3623C11.6546 8.37313 10.0296 10.009 8.01872 10.0165H7.99289Z" stroke="#130F26" stroke-width="1.5" stroke-linecap="round" stroke-linejoin="round"/>
<path d="M13.736 9.06802C15.0701 8.88052 16.0976 7.73552 16.1001 6.34969C16.1001 4.98385 15.1043 3.85052 13.7985 3.63635" stroke="#130F26" stroke-width="1.5" stroke-linecap="round" stroke-linejoin="round"/>
<path d="M15.4962 12.2769C16.7887 12.4694 17.6912 12.9227 17.6912 13.856C17.6912 14.4985 17.2662 14.9152 16.5795 15.176" stroke="#130F26" stroke-width="1.5" stroke-linecap="round" stroke-linejoin="round"/>
</svg>
